<?xml version="1.0" encoding="utf-8"?>
<!-- Generator: Adobe Illustrator 17.0.0, SVG Export Plug-In . SVG Version: 6.00 Build 0)  -->
<!DOCTYPE svg PUBLIC "-//W3C//DTD SVG 1.1//EN" "http://www.w3.org/Graphics/SVG/1.1/DTD/svg11.dtd">
<svg version="1.1" id="Layer_1" xmlns="http://www.w3.org/2000/svg" xmlns:xlink="http://www.w3.org/1999/xlink" x="0px" y="0px"
	 width="24px" height="24px" viewBox="0 0 24 24" enable-background="new 0 0 24 24" xml:space="preserve">
<g>
	<path d="M10.806,7.232l3.75,3.75c0.117,0.13,0.176,0.28,0.176,0.449c0,0.169-0.059,0.319-0.176,0.449l-3.75,3.75
		c-0.065,0.052-0.137,0.095-0.215,0.127c-0.078,0.033-0.156,0.049-0.234,0.049s-0.156-0.016-0.234-0.049
		c-0.078-0.032-0.15-0.075-0.215-0.127c-0.117-0.13-0.176-0.28-0.176-0.449c0-0.169,0.059-0.319,0.176-0.449l3.32-3.301L9.907,8.13
		C9.79,8,9.731,7.85,9.731,7.681c0-0.169,0.059-0.319,0.176-0.449c0.13-0.117,0.28-0.176,0.449-0.176
		C10.525,7.056,10.675,7.114,10.806,7.232z"/>
</g>
</svg>
