<?xml version="1.0" encoding="utf-8"?>
<!-- Generator: Adobe Illustrator 22.0.1, SVG Export Plug-In . SVG Version: 6.00 Build 0)  -->
<svg version="1.1" id="Layer_1" xmlns="http://www.w3.org/2000/svg" xmlns:xlink="http://www.w3.org/1999/xlink" x="0px" y="0px"
	 viewBox="0 0 50 50" style="enable-background:new 0 0 50 50;" xml:space="preserve">
<g>
	<path d="M38.8,10H11.2c-0.6,0-1.2,0.5-1.2,1.2v27.7c0,0.6,0.5,1.2,1.2,1.2h27.7c0.6,0,1.2-0.5,1.2-1.2V11.2
		C40,10.5,39.5,10,38.8,10z M12,21.2l9.2-9.2h4.7l-7,7c0,0,0,0,0,0L12,25.8V21.2z M18.3,12L12,18.3V12H18.3z M38,38H12v-9.4
		c0.1,0,0.2-0.1,0.2-0.2l8-8l1.2-1.2l7.2-7.2H38V38z"/>
</g>
</svg>
