<?xml version="1.0" encoding="utf-8"?>
<!-- Generator: Adobe Illustrator 22.0.1, SVG Export Plug-In . SVG Version: 6.00 Build 0)  -->
<svg version="1.1" id="Layer_1" xmlns="http://www.w3.org/2000/svg" xmlns:xlink="http://www.w3.org/1999/xlink" x="0px" y="0px"
	 viewBox="0 0 50 50" style="enable-background:new 0 0 50 50;" xml:space="preserve">
<g>
	<path d="M38,12v26H12V12H38 M38.8,10H11.2c-0.6,0-1.2,0.5-1.2,1.2v27.7c0,0.6,0.5,1.2,1.2,1.2h27.7c0.6,0,1.2-0.5,1.2-1.2V11.2
		C40,10.5,39.5,10,38.8,10L38.8,10z"/>
</g>
<g>
	<path d="M25,32.5L25,32.5c-0.6,0-1-0.4-1-1v-13c0-0.6,0.4-1,1-1h0c0.6,0,1,0.4,1,1v13C26,32.1,25.6,32.5,25,32.5z"/>
</g>
</svg>
