<?xml version="1.0" encoding="utf-8"?>
<!-- Generator: Adobe Illustrator 22.0.1, SVG Export Plug-In . SVG Version: 6.00 Build 0)  -->
<svg version="1.1" id="Layer_1" xmlns="http://www.w3.org/2000/svg" xmlns:xlink="http://www.w3.org/1999/xlink" x="0px" y="0px"
	 viewBox="0 0 50 50" style="enable-background:new 0 0 50 50;" xml:space="preserve">
<g>
	<path d="M25,12c7.2,0,13,5.8,13,13s-5.8,13-13,13s-13-5.8-13-13S17.8,12,25,12 M25,10c-8.3,0-15,6.7-15,15s6.7,15,15,15
		s15-6.7,15-15S33.3,10,25,10L25,10z"/>
</g>
<g>
	<path d="M23.1,26.8l-1,3.2H20l3.7-11.5h2.7L30,30h-2.2l-1-3.2H23.1z M26.4,25.2l-0.9-2.8c-0.2-0.7-0.4-1.5-0.6-2.1h0
		c-0.2,0.7-0.3,1.5-0.5,2.1l-0.9,2.8H26.4z"/>
</g>
</svg>
