<?xml version="1.0" encoding="utf-8"?>
<!-- Generator: Adobe Illustrator 22.0.1, SVG Export Plug-In . SVG Version: 6.00 Build 0)  -->
<svg version="1.1" id="Layer_1" xmlns="http://www.w3.org/2000/svg" xmlns:xlink="http://www.w3.org/1999/xlink" x="0px" y="0px"
	 viewBox="0 0 190.7 100" style="enable-background:new 0 0 190.7 100;" xml:space="preserve">
<style type="text/css">
	.st0{fill:#DDDDDD;}
	.st1{fill:#141414;}
	.st2{fill:#919191;}
	.st3{fill:#858585;}
	.st4{fill:#FFFFFF;}
	.st5{fill:#333333;}
</style>
<polygon class="st1" points="17.2,34.5 23.8,34.5 20.5,26 "/>
<path class="st1" d="M163.5,18.2v3.6l-1.8-3.6h-14.1v3.6l-1.8-3.6h-19.2c-3.3,0-6,0.6-8.4,1.8v-1.8h-13.5V20
	c-1.5-1.2-3.3-1.8-5.7-1.8H50.5l-3.3,7.5l-3.3-7.5H28.6v3.6l-1.8-3.6H13.9l-6,14.1L1,48h6.9h8.4l1.8-4.8h4.2l1.8,4.8h17.4v-3.6
	L43,48h8.7l1.5-3.6V48H95v-7.8h0.6c0.6,0,0.6,0,0.6,0.9v6.6h21.6v-1.8c1.8,0.9,4.5,1.8,8.1,1.8h9l1.8-4.8h4.2l1.8,4.8h17.4v-4.5
	l2.7,4.5H177V18.2H163.5L163.5,18.2z M62,43.5h-5.1V26.9l-7.2,16.5h-4.5l-7.2-16.5v16.5H27.7L25.6,39H15.4l-1.8,4.8H7.9l9-21.3h7.5
	l8.4,20.1V22.4h8.1l6.6,14.4l6-14.4H62V43.5z M82.4,26.9H70.7v3.9h11.4v4.2H70.7v4.2h11.7v4.5H65.6V22.4h16.8V26.9z M104.9,35.7
	c0.6,1.2,0.9,2.1,0.9,3.9v4.2h-5.1v-2.7c0-1.2,0-3-0.9-4.2C98.9,36,98,36,96.2,36h-5.4v7.8h-5.1V22.4h11.4c2.7,0,4.5,0,6,0.9
	c1.5,0.9,2.4,2.4,2.4,4.8c0,3.3-2.1,5.1-3.6,5.7C103.4,34.2,104.3,35.1,104.9,35.7z M113.9,43.5h-5.1V22.1h5.1V43.5z M173.1,43.5
	h-7.2l-9.6-15.9v15.9H146l-1.8-4.5h-10.5l-1.8,4.8h-5.7c-2.4,0-5.4-0.6-7.2-2.4c-1.8-1.8-2.7-4.2-2.7-8.1c0-3,0.6-6,2.7-8.4
	c1.5-1.8,4.2-2.4,7.5-2.4h4.8v4.5h-4.8c-1.8,0-2.7,0.3-3.9,1.2c-0.9,0.9-1.5,2.7-1.5,4.8c0,2.4,0.3,3.9,1.5,5.1
	c0.9,0.9,2.1,1.2,3.6,1.2h2.1l6.9-16.5h7.5l8.4,20.1V22.7h7.5l8.7,14.7V22.7h5.1v20.7L173.1,43.5L173.1,43.5z"/>
<g>
	<polygon class="st1" points="135.5,34.5 142.4,34.5 139.1,26 	"/>
	<polygon class="st1" points="84.5,77.7 84.5,60.6 76.7,69 	"/>
</g>
<polygon class="st1" points="52.3,62.7 52.3,66.6 63.5,66.6 63.5,70.8 52.3,70.8 52.3,75.3 64.7,75.3 70.4,69 65,62.7 "/>
<path id="SVGCleanerId_1_3_" class="st1" d="M95.9,62.7h-6.3v5.4h6.6c1.8,0,3-0.9,3-2.7C98.9,63.6,97.7,62.7,95.9,62.7z"/>
<path class="st1" d="M188.7,67.8V54.3h-3.6h-9c-2.7,0-4.8,0.6-6.3,1.8v-1.8h-13.8c-2.1,0-4.8,0.6-6,1.8v-1.8h-24.3v1.8
	c-1.8-1.5-5.1-1.8-6.6-1.8h-16.2v1.8c-1.5-1.5-5.1-1.8-6.9-1.8h-18l-4.2,4.5l-3.9-4.5h-27v29.4h26.4l4.2-4.5l3.9,4.5h16.2v-6.9h2.1
	c2.1,0,4.8,0,6.9-0.9V84H116v-7.8h0.6c0.9,0,0.9,0,0.9,0.9V84h40.8c2.7,0,5.4-0.6,6.9-1.8V84h12.9c2.7,0,5.4-0.3,7.2-1.5l0,0
	c3-1.8,4.8-5.1,4.8-9C190.2,71.4,189.6,69.3,188.7,67.8z M95.6,72.6h-6v7.2H80l-6-6.9l-6.3,6.9H47.8V58.5H68l6,6.9l6.3-6.9h15.9
	c3.9,0,8.4,1.2,8.4,6.9C104.3,71.4,100.1,72.6,95.6,72.6z M125.6,71.4c0.6,0.9,0.9,2.1,0.9,3.9v4.2h-5.1v-2.7c0-1.2,0-3.3-0.9-4.2
	c-0.6-0.9-1.8-0.9-3.6-0.9h-5.4v7.8h-5.1V58.2h11.4c2.4,0,4.5,0,6,0.9c1.5,0.9,2.7,2.4,2.7,4.8c0,3.3-2.1,5.1-3.6,5.7
	C124.4,70.2,125.3,70.8,125.6,71.4z M146.3,62.7h-11.7v3.9H146v4.2h-11.4V75h11.7v4.5h-16.8V58.2h16.8V62.7z M158.9,79.5h-9.6V75
	h9.6c0.9,0,1.5,0,2.1-0.6c0.3-0.3,0.6-0.9,0.6-1.5c0-0.6-0.3-1.2-0.6-1.5c-0.3-0.3-0.9-0.6-1.8-0.6c-4.8-0.3-10.5,0-10.5-6.6
	c0-3,1.8-6.3,7.2-6.3h9.9V63h-9.3c-0.9,0-1.5,0-2.1,0.3s-0.6,0.9-0.6,1.5c0,0.9,0.6,1.2,1.2,1.5s1.2,0.3,1.8,0.3h2.7
	c2.7,0,4.5,0.6,5.7,1.8c0.9,0.9,1.5,2.4,1.5,4.5C166.8,77.4,164.1,79.5,158.9,79.5z M184.8,77.4c-1.2,1.2-3.3,2.1-6.3,2.1h-9.6V75
	h9.6c0.9,0,1.5,0,2.1-0.6c0.3-0.3,0.6-0.9,0.6-1.5c0-0.6-0.3-1.2-0.6-1.5s-0.9-0.6-1.8-0.6c-4.8-0.3-10.5,0-10.5-6.6
	c0-3,1.8-6.3,7.2-6.3h9.9V63h-9c-0.9,0-1.5,0-2.1,0.3s-0.6,0.9-0.6,1.5c0,0.9,0.3,1.2,1.2,1.5c0.6,0.3,1.2,0.3,1.8,0.3h2.7
	c2.7,0,4.5,0.6,5.7,1.8c0.3,0,0.3,0.3,0.3,0.3c0.9,1.2,1.2,2.7,1.2,4.2C186.6,74.7,186,76.2,184.8,77.4z"/>
<g>
	<polygon class="st1" points="84.5,77.7 84.5,60.6 76.7,69 	"/>
</g>
<g>
	<polygon class="st5" points="162.9,46.8 163.5,47.7 163.8,47.7 	"/>
</g>
<path id="SVGCleanerId_1_1_" class="st1" d="M117.8,62.7h-6.3v5.4h6.6c1.8,0,3-0.9,3-2.7C120.8,63.6,119.6,62.7,117.8,62.7z"/>
<path id="SVGCleanerId_1_2_" class="st1" d="M97.1,26.4h-6.3v5.4h6.6c1.8,0,3-0.9,3-2.7C100.1,27.3,98.9,26.4,97.1,26.4z"/>
</svg>
