<?xml version="1.0" encoding="utf-8"?>
<!-- Generator: Adobe Illustrator 22.0.1, SVG Export Plug-In . SVG Version: 6.00 Build 0)  -->
<svg version="1.1" id="Layer_1" xmlns="http://www.w3.org/2000/svg" xmlns:xlink="http://www.w3.org/1999/xlink" x="0px" y="0px"
	 viewBox="0 0 200 100" style="enable-background:new 0 0 200 100;" xml:space="preserve">
<style type="text/css">
	.st0{fill:#DDDDDD;}
	.st1{fill:#141414;}
	.st2{fill:#919191;}
	.st3{fill:#858585;}
	.st4{fill:#FFFFFF;}
	.st5{fill:#333333;}
</style>
<path class="st0" d="M29,13.8L0,19v39.7C2.5,64,6.2,68.9,11.3,73.3c5,4.3,10.9,7.8,17.7,10.5c6.7-2.7,12.7-6.2,17.7-10.5
	c5-4.3,8.8-9.2,11.3-14.6V19L29,13.8z"/>
<g>
	<path class="st1" d="M24.3,60.2l-12.8-14l4.6-3.5l8.1,5.8l17.5-15.1l4.6,2.3L24.3,60.2z"/>
</g>
<path class="st1" d="M78.4,57.5c0-1.4,1.2-1.9,3.1-1.9c2.8,0,6.2,0.8,9,2.3v-8.6c-3-1.2-6-1.7-9-1.7c-7.4,0-12.3,3.8-12.3,10.3
	c0,10,13.8,8.4,13.8,12.7c0,1.7-1.5,2.2-3.5,2.2c-3,0-6.9-1.2-9.9-2.9v8.7c3.4,1.5,6.8,2.1,9.9,2.1c7.5,0,12.7-3.7,12.7-10.2
	C92.2,59.7,78.4,61.6,78.4,57.5L78.4,57.5z M102.9,40.4l-8.8,1.9l0,29.1c0,5.4,4,9.3,9.4,9.3c3,0,5.2-0.6,6.3-1.2v-7.4
	c-1.2,0.5-6.9,2.1-6.9-3.2V56h6.9v-7.7h-6.9L102.9,40.4z M121.1,51l-0.6-2.7h-7.8v31.8h9.1V58.5c2.1-2.8,5.8-2.3,6.9-1.9v-8.4
	C127.5,47.9,123.3,47.1,121.1,51L121.1,51z M130.9,48.3h9.1v31.8h-9.1V48.3L130.9,48.3z M130.9,45.5l9.1-1.9v-7.4l-9.1,1.9V45.5
	L130.9,45.5z M159,47.7c-3.6,0-5.8,1.7-7.1,2.8l-0.5-2.3h-8v42.4l9.1-1.9l0-10.3c1.3,1,3.2,2.3,6.4,2.3c6.5,0,12.4-5.2,12.4-16.7
	C171.3,53.4,165.4,47.7,159,47.7L159,47.7z M156.8,72.7c-2.1,0-3.4-0.8-4.3-1.7l0-13.5c1-1.1,2.3-1.8,4.3-1.8c3.3,0,5.6,3.7,5.6,8.5
	C162.4,69.1,160.2,72.7,156.8,72.7L156.8,72.7z M200,64.3c0-9.3-4.5-16.6-13.1-16.6c-8.7,0-13.9,7.3-13.9,16.6
	c0,11,6.2,16.5,15,16.5c4.3,0,7.6-1,10.1-2.4v-7.3c-2.5,1.2-5.3,2-8.9,2c-3.5,0-6.7-1.2-7.1-5.5h17.8C199.9,67.1,200,65.2,200,64.3
	L200,64.3z M182.1,60.9c0-4.1,2.5-5.8,4.8-5.8c2.2,0,4.6,1.7,4.6,5.8H182.1z"/>
<g>
	<path class="st1" d="M70.7,18.7c0.8-0.2,1.9-0.3,3.4-0.3c1.7,0,3,0.4,3.8,1.1c0.8,0.6,1.2,1.6,1.2,2.9c0,1.2-0.4,2.2-1,2.9
		c-0.9,1-2.4,1.5-4.2,1.5c-0.5,0-1,0-1.4-0.1v5.4h-1.7V18.7z M72.5,25.2c0.4,0.1,0.9,0.2,1.5,0.2c2.1,0,3.4-1,3.4-2.9
		c0-1.8-1.3-2.7-3.2-2.7c-0.8,0-1.3,0.1-1.7,0.2V25.2z"/>
	<path class="st1" d="M89.7,27.1c0,3.6-2.5,5.2-4.8,5.2c-2.7,0-4.7-1.9-4.7-5c0-3.3,2.1-5.2,4.8-5.2C87.8,22.1,89.7,24.1,89.7,27.1z
		 M82,27.2c0,2.1,1.2,3.8,3,3.8c1.7,0,3-1.6,3-3.8c0-1.7-0.8-3.8-2.9-3.8C82.9,23.4,82,25.4,82,27.2z"/>
	<path class="st1" d="M92.5,22.3l1.3,5c0.3,1.1,0.6,2.1,0.7,3.1h0.1c0.2-1,0.6-2,0.9-3.1l1.6-5h1.5l1.5,4.9c0.4,1.2,0.6,2.2,0.9,3.2
		h0.1c0.2-1,0.4-2,0.8-3.2l1.4-4.9h1.7l-3.1,9.8h-1.6l-1.5-4.6c-0.4-1.1-0.6-2.1-0.9-3.2h0c-0.2,1.2-0.6,2.2-0.9,3.2L95.3,32h-1.7
		l-2.9-9.8L92.5,22.3L92.5,22.3z"/>
	<path class="st1" d="M107.5,27.6c0,2.4,1.6,3.4,3.3,3.4c1.3,0,2-0.2,2.7-0.5l0.3,1.3c-0.6,0.3-1.7,0.6-3.3,0.6c-3,0-4.8-2-4.8-4.9
		s1.7-5.3,4.6-5.3c3.2,0,4,2.8,4,4.6c0,0.4,0,0.6-0.1,0.8L107.5,27.6L107.5,27.6z M112.7,26.3c0-1.1-0.5-2.9-2.5-2.9
		c-1.8,0-2.6,1.7-2.7,2.9H112.7z"/>
	<path class="st1" d="M116.5,25.4c0-1.2,0-2.1-0.1-3.1h1.5l0.1,1.9h0.1c0.4-1.3,1.5-2.1,2.7-2.1c0.2,0,0.4,0,0.5,0.1v1.7
		c-0.2,0-0.4-0.1-0.6-0.1c-1.3,0-2.1,1-2.4,2.3c0,0.2-0.1,0.5-0.1,0.8V32h-1.7L116.5,25.4L116.5,25.4z"/>
	<path class="st1" d="M123.9,27.6c0,2.4,1.6,3.4,3.3,3.4c1.3,0,2-0.2,2.7-0.5l0.3,1.3c-0.6,0.3-1.7,0.6-3.3,0.6c-3,0-4.8-2-4.8-4.9
		s1.7-5.3,4.6-5.3c3.2,0,4,2.8,4,4.6c0,0.4,0,0.6-0.1,0.8L123.9,27.6L123.9,27.6z M129.1,26.3c0-1.1-0.5-2.9-2.5-2.9
		c-1.8,0-2.6,1.7-2.7,2.9H129.1z"/>
	<path class="st1" d="M141.5,17.8v11.8c0,0.9,0,1.9,0.1,2.5H140l-0.1-1.7h0c-0.6,1.1-1.7,1.9-3.3,1.9c-2.3,0-4.2-2-4.2-5
		c0-3.3,2-5.2,4.4-5.2c1.5,0,2.5,0.7,2.9,1.5h0v-5.8H141.5z M139.7,26.3c0-0.2,0-0.5-0.1-0.8c-0.3-1.1-1.2-2.1-2.6-2.1
		c-1.8,0-2.9,1.6-2.9,3.8c0,2,1,3.6,2.9,3.6c1.2,0,2.3-0.8,2.6-2.1c0.1-0.2,0.1-0.5,0.1-0.8V26.3z"/>
	<path class="st1" d="M148.6,32.1c0-0.7,0.1-1.7,0.1-2.5V17.8h1.7v6.1h0c0.6-1.1,1.7-1.8,3.3-1.8c2.4,0,4.1,2,4.1,5
		c0,3.5-2.2,5.2-4.4,5.2c-1.4,0-2.5-0.6-3.3-1.8h-0.1l-0.1,1.6L148.6,32.1L148.6,32.1z M150.5,28.2c0,0.2,0,0.4,0.1,0.6
		c0.4,1.2,1.4,2.1,2.7,2.1c1.9,0,3-1.5,3-3.8c0-1.9-1-3.6-2.9-3.6c-1.2,0-2.3,0.8-2.7,2.2c0,0.2-0.1,0.4-0.1,0.7L150.5,28.2
		L150.5,28.2z"/>
	<path class="st1" d="M160.7,22.3l2.1,5.8c0.2,0.6,0.5,1.4,0.6,2h0c0.2-0.6,0.4-1.3,0.6-2l1.9-5.7h1.9l-2.7,6.9
		c-1.3,3.3-2.1,5.1-3.3,6.1c-0.9,0.8-1.7,1.1-2.2,1.2l-0.4-1.5c0.4-0.2,1-0.4,1.5-0.9c0.5-0.4,1.1-1.1,1.5-2
		c0.1-0.2,0.2-0.3,0.2-0.4c0-0.1,0-0.2-0.1-0.5l-3.6-9L160.7,22.3L160.7,22.3z"/>
</g>
</svg>
