<svg width="55" height="18" viewBox="0 0 55 18" fill="none" xmlns="http://www.w3.org/2000/svg">
<path d="M0.393503 4.74453C0.685821 4.92442 1.2817 5.16052 1.82136 5.10431C2.29357 5.10431 2.59713 4.86821 2.59713 4.50843C2.59713 4.21611 2.41724 3.98001 1.88882 3.67645C1.23673 3.31668 0.764522 2.78826 0.764522 2.07995C0.764522 0.831981 1.8326 6.86217e-07 3.31668 6.86217e-07C3.96877 6.86217e-07 4.50843 0.123672 4.80075 0.292317L4.38476 1.54029C4.14866 1.41661 3.73267 1.30418 3.31668 1.30418C2.84447 1.30418 2.4847 1.54029 2.4847 1.90006C2.4847 2.19238 2.7208 2.37227 3.13679 2.60837C3.78888 3.02436 4.38476 3.55278 4.38476 4.27233C4.38476 5.63273 3.26046 6.46471 1.72017 6.40849C1.01187 6.40849 0.359774 6.22861 -6.86217e-07 5.9925L0.393503 4.74453Z" transform="translate(17.9258 3.04736)" fill="white"/>
<path d="M-6.86217e-07 8.89319L1.72017 -6.86217e-07H3.44035L2.78826 3.56402V3.62024C3.26046 3.09182 3.85634 2.73204 4.63211 2.73204C5.5203 2.73204 6.05996 3.32792 6.05996 4.32854C6.05996 4.62086 6.00375 5.03685 5.93629 5.39663L5.2842 8.89319H3.56402L4.21611 5.45284C4.27233 5.21674 4.27233 4.98064 4.27233 4.74453C4.27233 4.38476 4.09244 4.09244 3.74391 4.09244C3.21549 4.09244 2.61961 4.74453 2.38351 5.86883L1.78763 8.83698H0.011243V8.89319H-6.86217e-07Z" transform="translate(22.6484 0.326538)" fill="white"/>
<path d="M5.81262 2.42848C5.81262 4.56465 4.45222 6.4085 2.37227 6.4085C0.831981 6.4085 0 5.34041 0 3.98001C0 1.84385 1.3604 6.86217e-07 3.49657 6.86217e-07C5.03685 6.86217e-07 5.81262 1.19175 5.81262 2.42848ZM1.72017 3.98001C1.72017 4.6321 1.95628 5.10431 2.55216 5.10431C3.49657 5.10431 3.98001 3.44035 3.98001 2.37227C3.98001 1.84385 3.80012 1.30418 3.14803 1.30418C2.24859 1.3604 1.72017 2.96814 1.72017 3.98001Z" transform="translate(29.2363 3.04736)" fill="white"/>
<path d="M0 8.65709L1.19176 2.4847C1.31543 1.77639 1.48407 0.944409 1.55153 0.348532H3.09182L2.96814 0.94441C3.44035 0.348532 4.09244 6.86217e-07 4.81199 6.86217e-07C6.05996 6.86217e-07 6.58838 1.1243 6.58838 2.25984C6.58838 4.396 5.22798 6.47595 3.20425 6.47595C2.91193 6.53217 2.49594 6.29607 2.31605 6.29607H2.25984L1.78763 8.66833H0V8.65709ZM2.4847 4.98064C2.66459 5.16052 2.90069 5.21674 3.193 5.21674C4.13741 5.21674 4.85697 3.62024 4.85697 2.4847C4.85697 2.01249 4.67708 1.54029 4.14866 1.54029C3.55278 1.54029 2.9569 2.2486 2.78826 3.31668L2.4847 4.98064Z" transform="translate(34.5762 2.93494)" fill="white"/>
<path d="M6.86217e-07 8.61212L1.19176 2.67583H2.96814L1.77639 8.61212H6.86217e-07ZM2.25984 2.07995C1.78763 2.07995 1.42786 1.60774 1.42786 1.06808C1.42786 0.472204 1.84385 -6.86217e-07 2.43972 -6.86217e-07C2.96814 -6.86217e-07 3.32792 0.472205 3.32792 0.94441C3.26046 1.60775 2.78826 2.07995 2.25984 2.07995Z" transform="translate(41.334 0.607666)" fill="white"/>
<path d="M6.86217e-07 8.90443L0.94441 4.1599H0.11243L0.348534 2.96814H1.18051L1.23673 2.60837C1.3604 1.90006 1.65272 1.1243 2.2486 0.595878C2.7208 0.179888 3.31668 3.43108e-07 3.96877 3.43108e-07C4.38476 3.43108e-07 4.74453 0.0562142 4.91318 0.123672L4.5534 1.48407C4.37352 1.42786 4.19363 1.3604 4.02498 1.3604C3.42911 1.3604 3.08057 1.95628 3.01312 2.55216L2.83323 2.96814H4.02498L3.78888 4.1599H2.59713L1.65272 8.90443H6.86217e-07Z" transform="translate(44.5938 0.315308)" fill="white"/>
<path d="M2.7995 -3.43108e-07L3.09182 2.73204C3.14803 3.32792 3.21549 3.56402 3.27171 4.1599C3.39538 3.56402 3.50781 3.38413 3.80012 2.73204L4.86821 -3.43108e-07H6.6446L4.50843 4.50843C3.73267 6.04872 3.02436 7.17302 2.19238 7.94878C1.5965 8.54466 0.831979 8.78076 0.472204 8.89319L6.86217e-07 7.40912C0.292318 7.28545 0.652093 7.17302 1.01187 6.93691C1.42786 6.6446 1.78763 6.28482 1.95628 5.86883C2.01249 5.81262 2.01249 5.74516 2.01249 5.63273L0.94441 -3.43108e-07H2.7995Z" transform="translate(48.0234 3.28345)" fill="white"/>
<path d="M0 3.193L0.573392 3.14803C0.595878 3.38414 0.663336 3.56402 0.764522 3.72142C0.865709 3.86758 1.02311 3.99125 1.22548 4.0812C1.4391 4.17114 1.6752 4.21612 1.93379 4.21612C2.16989 4.21612 2.37227 4.18238 2.55215 4.11493C2.73204 4.04747 2.86696 3.94628 2.94566 3.83385C3.0356 3.71018 3.08057 3.58651 3.08057 3.44035C3.08057 3.29419 3.0356 3.17052 2.9569 3.05809C2.8782 2.94566 2.73204 2.85571 2.54091 2.78826C2.41724 2.74328 2.14741 2.66458 1.72018 2.5634C1.29294 2.46221 1.00062 2.36102 0.831979 2.27108C0.60712 2.15865 0.449719 2.01249 0.337289 1.84385C0.224859 1.6752 0.179888 1.48407 0.179888 1.27046C0.179888 1.03435 0.247345 0.820738 0.38226 0.618365C0.517176 0.415991 0.708308 0.258589 0.966896 0.157402C1.22548 0.0562155 1.50656 1.37243e-06 1.81012 1.37243e-06C2.14741 1.37243e-06 2.45097 0.0562162 2.7208 0.168646C2.97939 0.281076 3.18176 0.438476 3.32792 0.652092C3.47408 0.865709 3.54154 1.11305 3.55278 1.38289L2.96814 1.42786C2.93442 1.13554 2.83323 0.910681 2.65334 0.764522C2.47345 0.618363 2.20362 0.539663 1.84385 0.539663C1.47283 0.539663 1.203 0.607119 1.03435 0.742035C0.865709 0.87695 0.775764 1.0456 0.775764 1.23673C0.775764 1.40537 0.83198 1.54029 0.955653 1.64147C1.06808 1.7539 1.38289 1.85509 1.87758 1.96752C2.37227 2.07995 2.7208 2.18114 2.90069 2.25984C3.17052 2.38351 3.37289 2.54091 3.49657 2.73204C3.62024 2.92317 3.6877 3.13679 3.6877 3.38413C3.6877 3.63148 3.62024 3.85634 3.47408 4.0812C3.32792 4.29482 3.12555 4.46346 2.86696 4.58713C2.60837 4.7108 2.30481 4.76702 1.97876 4.76702C1.56277 4.76702 1.21424 4.7108 0.933167 4.58713C0.652093 4.46346 0.427232 4.28357 0.269831 4.03623C0.0899431 3.77764 0.011243 3.49656 0 3.193Z" transform="translate(20.2422 13.2334)" fill="#858585"/>
<path d="M-6.86217e-07 4.62086V1.37243e-06H3.33916V0.550906H0.607121V1.96752H3.15928V2.50718H0.607121V4.0812H3.44035V4.6321H-6.86217e-07V4.62086Z" transform="translate(25.7969 13.2897)" fill="#858585"/>
<path d="M3.48532 3.08057L4.09244 3.23797C3.96877 3.74391 3.73267 4.12617 3.39538 4.38476C3.05809 4.64335 2.65334 4.77826 2.16989 4.77826C1.6752 4.77826 1.27046 4.67708 0.955653 4.4747C0.64085 4.27233 0.404746 3.98001 0.247344 3.59775C0.0899424 3.21549 6.86217e-07 2.7995 6.86217e-07 2.36102C6.86217e-07 1.87758 0.0899445 1.46159 0.281075 1.10181C0.460963 0.742035 0.730794 0.472205 1.06808 0.281074C1.40537 0.0899438 1.77639 0 2.19238 0C2.65334 0 3.04685 0.11243 3.36165 0.348533C3.67645 0.584635 3.90131 0.91068 4.02498 1.33791L3.41786 1.48407C3.30543 1.14678 3.15927 0.899439 2.9569 0.753281C2.75453 0.595879 2.49594 0.528421 2.19238 0.528421C1.83261 0.528421 1.54029 0.618363 1.30419 0.787008C1.06808 0.955653 0.899439 1.18051 0.798253 1.47283C0.697066 1.76515 0.652092 2.05746 0.652092 2.36102C0.652092 2.75453 0.708307 3.09182 0.820736 3.39538C0.933166 3.6877 1.11306 3.91255 1.3604 4.04747C1.5965 4.19363 1.86633 4.26109 2.14741 4.26109C2.4847 4.26109 2.77701 4.1599 3.01312 3.96877C3.24922 3.75515 3.40662 3.46284 3.48532 3.08057Z" transform="translate(30.9336 13.2109)" fill="#858585"/>
<path d="M3.02436 0.0112443H3.63148V2.67583C3.63148 3.13679 3.57526 3.50781 3.47408 3.77764C3.37289 4.04747 3.18176 4.27233 2.90069 4.44098C2.63085 4.60962 2.27108 4.69956 1.82136 4.69956C1.38289 4.69956 1.03435 4.62086 0.764521 4.4747C0.494689 4.32854 0.292318 4.11493 0.179888 3.82261C0.0674585 3.54154 0 3.15927 0 2.66458V6.86217e-07H0.60712V2.66458C0.60712 3.06933 0.640849 3.36165 0.71955 3.55278C0.79825 3.74391 0.921922 3.89007 1.10181 3.99126C1.2817 4.09244 1.50656 4.14866 1.76515 4.14866C2.21487 4.14866 2.54091 4.04747 2.73204 3.8451C2.92317 3.64272 3.02436 3.24922 3.02436 2.66458V0.0112443Z" transform="translate(36.8262 13.2784)" fill="#858585"/>
<path d="M1.37243e-06 4.62086V1.37243e-06H2.04622C2.46221 1.37243e-06 2.76577 0.0449705 2.99063 0.123671C3.20425 0.202372 3.37289 0.348534 3.50781 0.56215C3.63148 0.775766 3.69894 1.00062 3.69894 1.25921C3.69894 1.58526 3.59775 1.86633 3.38413 2.09119C3.17052 2.31605 2.84447 2.46221 2.406 2.51843C2.5634 2.59713 2.68707 2.67583 2.77701 2.74329C2.9569 2.91193 3.12555 3.1143 3.28295 3.36165L4.0812 4.62086H3.31668L2.70956 3.65397C2.52967 3.37289 2.38351 3.15927 2.27108 3.01312C2.15865 2.86696 2.05746 2.76577 1.95628 2.70955C1.86633 2.65334 1.77639 2.60837 1.6752 2.58588C1.60775 2.57464 1.49532 2.5634 1.33791 2.5634H0.629605V4.62086H1.37243e-06ZM0.607121 2.03498H1.92255C2.20362 2.03498 2.41724 2.00125 2.57464 1.94503C2.73204 1.88882 2.85571 1.79888 2.93441 1.66396C3.01312 1.54029 3.05809 1.39413 3.05809 1.24797C3.05809 1.03435 2.97939 0.854466 2.82198 0.708307C2.66458 0.562149 2.41724 0.494691 2.06871 0.494691H0.607121V2.03498Z" transform="translate(42.5254 13.2897)" fill="#858585"/>
<path d="M-6.86217e-07 4.62086V1.37243e-06H3.33916V0.550906H0.607119V1.96752H3.15928V2.50718H0.607119V4.0812H3.44035V4.6321H-6.86217e-07V4.62086Z" transform="translate(48.2266 13.2897)" fill="#858585"/>
<path d="M13.7726 4.38476C13.7726 4.1599 13.7726 3.9238 13.7726 3.69894H13.7502C13.0081 3.90131 12.2548 4.06996 11.4678 4.20487C11.4678 4.18238 11.4678 4.1599 11.4678 4.13741C11.4678 1.72018 9.6802 0.134916 7.42036 0C5.16052 0.134916 3.37289 1.72018 3.37289 4.13741C3.37289 4.1599 3.37289 4.18238 3.37289 4.20487C2.58588 4.06996 1.8326 3.90131 1.09057 3.69894H1.06808C1.06808 3.9238 1.06808 4.14866 1.06808 4.38476C1.06808 9.03935 0.697064 13.5815 2.14443e-08 17.955H7.40912H14.8182C14.1437 13.5815 13.7726 9.03935 13.7726 4.38476ZM9.30918 15.0206H7.42036H5.54279L6.7233 11.5578C5.94753 11.2655 5.39663 10.5234 5.39663 9.64647C5.39663 8.52217 6.30731 7.61149 7.43161 7.61149C8.5559 7.61149 9.46658 8.52217 9.46658 9.64647C9.46658 10.5234 8.91568 11.2655 8.13991 11.5578L9.30918 15.0206ZM10.9844 4.28357C9.8376 4.45222 8.64585 4.5534 7.42036 4.57589C6.19488 4.5534 5.01437 4.45222 3.85634 4.28357C3.85634 4.2386 3.85634 4.19363 3.85634 4.13741C3.85634 1.99001 5.43036 0.618364 7.42036 0.483448C9.41037 0.618364 10.9844 1.99001 10.9844 4.13741C10.9844 4.19363 10.9844 4.2386 10.9844 4.28357Z" transform="translate(0.599609 0.000488281)" fill="#BDBDBD"/>
</svg>
