<?xml version="1.0" encoding="utf-8"?>
<!-- Generator: Adobe Illustrator 22.0.1, SVG Export Plug-In . SVG Version: 6.00 Build 0)  -->
<svg version="1.1" id="Layer_1" xmlns="http://www.w3.org/2000/svg" xmlns:xlink="http://www.w3.org/1999/xlink" x="0px" y="0px"
	 viewBox="0 0 141.7 100" style="enable-background:new 0 0 141.7 100;" xml:space="preserve">
<style type="text/css">
	.st0{fill:#DDDDDD;}
	.st1{fill:#141414;}
	.st2{fill:#919191;}
	.st3{fill:#858585;}
	.st4{fill:#FFFFFF;}
	.st5{fill:#333333;}
</style>
<polygon class="st1" points="52,71.1 59,31.4 70.1,31.4 63.2,71.1 "/>
<path class="st1" d="M103.2,31.8c-2.2-0.9-5.7-1.8-10.1-1.8c-11,0-19,5.5-19,13.5c0,6,5.5,9,9.9,11s5.7,3.3,5.7,5.1
	c0,2.6-3.5,4-6.6,4c-4.4,0-6.8-0.7-10.6-2.2l-1.5-0.7l-1.5,9C72,70.9,76.9,72,82,72c11.7,0,19.4-5.5,19.4-13.9c0-4.6-2.9-8.2-9.5-11
	c-4-2-6.4-3.1-6.4-5.1c0-1.8,2-3.5,6.4-3.5c3.8,0,6.4,0.7,8.4,1.5l1.1,0.4L103.2,31.8L103.2,31.8z"/>
<path class="st1" d="M122.1,31.4c-2.6,0-4.6,0.2-5.7,2.9L99.8,71.1h11.9l2.2-6.6h14.1l1.3,6.6H140l-9.3-39.7H122.1z M117.1,57.9
	c0.7-2,4.4-11.7,4.4-11.7s0.9-2.4,1.5-4l0.7,3.8c0,0,2.2,9.9,2.6,12.1h-9.3V57.9z"/>
<path class="st1" d="M31.7,59.2l-1.1-5.7c-2-6.6-8.4-13.9-15.4-17.4L25,71.3H37l17.9-39.7H42.9L31.7,59.2z"/>
<path class="st3" d="M30.5,49.3c0,0.1,0.1,0.2,0.1,0.2l-0.4-1.7L26.6,31c-0.7-2.6-2.6-3.3-5.1-3.3H1l7,2.2c8.7,3.3,15.9,8.7,20,14.9
	c1,1.6,1.8,3.3,2.5,5L30.5,49.3z"/>
</svg>
