<?xml version="1.0" encoding="utf-8"?>
<!-- Generator: Adobe Illustrator 17.0.0, SVG Export Plug-In . SVG Version: 6.00 Build 0)  -->
<!DOCTYPE svg PUBLIC "-//W3C//DTD SVG 1.1//EN" "http://www.w3.org/Graphics/SVG/1.1/DTD/svg11.dtd">
<svg version="1.1" id="Layer_1" xmlns="http://www.w3.org/2000/svg" xmlns:xlink="http://www.w3.org/1999/xlink" x="0px" y="0px"
	 width="24px" height="24px" viewBox="0 0 24 24" enable-background="new 0 0 24 24" xml:space="preserve">
<g>
	<path d="M3.306,21.142c-0.169,0-0.316-0.062-0.439-0.186c-0.124-0.124-0.186-0.271-0.186-0.439v-17.5
		c0-0.169,0.062-0.315,0.186-0.439c0.124-0.123,0.27-0.186,0.439-0.186h17.5c0.169,0,0.315,0.063,0.439,0.186
		c0.124,0.124,0.186,0.271,0.186,0.439v17.5c0,0.169-0.062,0.315-0.186,0.439c-0.124,0.124-0.271,0.186-0.439,0.186H3.306z
		 M3.931,3.642v7.5h7.5v-7.5H3.931z M3.931,19.892h7.5v-7.5h-7.5V19.892z M20.181,3.642h-7.5v7.5h7.5V3.642z M20.181,19.892v-7.5
		h-7.5v7.5H20.181z"/>
</g>
</svg>
