<?xml version="1.0" encoding="utf-8"?>
<!-- Generator: Adobe Illustrator 22.0.1, SVG Export Plug-In . SVG Version: 6.00 Build 0)  -->
<svg version="1.1" id="Layer_1" xmlns="http://www.w3.org/2000/svg" xmlns:xlink="http://www.w3.org/1999/xlink" x="0px" y="0px"
	 viewBox="0 0 50 50" style="enable-background:new 0 0 50 50;" xml:space="preserve">
<g>
	<path d="M25,12c7.2,0,13,5.8,13,13s-5.8,13-13,13s-13-5.8-13-13S17.8,12,25,12 M25,10c-8.3,0-15,6.7-15,15s6.7,15,15,15
		s15-6.7,15-15S33.3,10,25,10L25,10z"/>
</g>
<g>
	<path d="M20.7,30l-2.8-11.5h2.2l1.1,5.2c0.3,1.4,0.6,2.9,0.7,4h0c0.2-1.2,0.5-2.6,0.8-4l1.2-5.2h2.2l1.1,5.3
		c0.3,1.4,0.5,2.6,0.7,3.9h0c0.2-1.3,0.5-2.6,0.8-4l1.2-5.2h2.1L29.1,30h-2.2l-1.2-5.4c-0.3-1.3-0.5-2.4-0.6-3.6h0
		c-0.2,1.2-0.4,2.3-0.8,3.6L22.9,30H20.7z"/>
</g>
</svg>
