<?xml version="1.0" encoding="utf-8"?>
<!-- Generator: Adobe Illustrator 22.0.1, SVG Export Plug-In . SVG Version: 6.00 Build 0)  -->
<svg version="1.1" id="Layer_1" xmlns="http://www.w3.org/2000/svg" xmlns:xlink="http://www.w3.org/1999/xlink" x="0px" y="0px"
	 viewBox="0 0 200 100" style="enable-background:new 0 0 200 100;" xml:space="preserve">
<style type="text/css">
	.st0{fill:#DDDDDD;}
	.st1{fill:#141414;}
	.st2{fill:#919191;}
	.st3{fill:#858585;}
	.st4{fill:#FFFFFF;}
	.st5{fill:#333333;}
</style>
<circle class="st0" cx="106.1" cy="36.3" r="16.8"/>
<path id="SVGCleanerId_0" class="st1" d="M9,20.5H0v31.6h9c4.8,0,8.4-1.3,11.3-3.5c3.5-2.9,5.8-7.4,5.8-12.3
	C26.1,27,19.4,20.5,9,20.5z M16.5,44.4C14.5,46,11.9,47,8.1,47H6.1V26h1.6c3.9,0,6.5,0.6,8.4,2.6c2.3,1.9,3.5,4.8,3.5,7.7
	C20,39.2,18.7,42.5,16.5,44.4z"/>
<rect id="SVGCleanerId_1" x="29" y="20.5" class="st1" width="6.1" height="31.6"/>
<path id="SVGCleanerId_2" class="st1" d="M50.6,32.8c-3.9-1.3-4.8-2.3-4.8-3.9c0-1.9,1.9-3.5,4.5-3.5c1.9,0,3.5,0.6,5.2,2.6l3.2-4.2
	c-2.6-2.3-5.8-3.5-9.4-3.5c-5.5,0-10,3.9-10,9c0,4.5,1.9,6.5,7.7,8.7c2.6,1,3.5,1.3,4.2,1.9c1.3,0.6,1.9,1.9,1.9,3.2
	c0,2.6-1.9,4.5-4.8,4.5c-2.9,0-5.5-1.6-6.8-4.2l-3.9,3.9c2.9,4.2,6.5,6.1,11,6.1c6.5,0,11-4.2,11-10.3
	C59.7,37.6,57.7,35.4,50.6,32.8z"/>
<path class="st1" d="M61.6,36.3c0,9.4,7.4,16.5,16.8,16.5c2.6,0,4.8-0.6,7.7-1.9v-7.4C83.5,46,81.3,47,78.7,47
	c-6.1,0-10.6-4.5-10.6-11c0-6.1,4.5-11,10.3-11c2.9,0,5.2,1,7.7,3.5v-7.4c-2.6-1.3-4.8-1.9-7.7-1.9C69.4,19.9,61.6,27.3,61.6,36.3z"
	/>
<polygon class="st1" points="136.8,41.8 128.4,20.5 121.6,20.5 134.8,53.1 138.4,53.1 152.3,20.5 145.5,20.5 "/>
<polygon class="st1" points="154.8,52.1 172.6,52.1 172.6,47 161.3,47 161.3,38.3 172.3,38.3 172.3,32.8 161.3,32.8 161.3,26 
	172.6,26 172.6,20.5 154.8,20.5 "/>
<path class="st1" d="M190,38.9c4.8-1,7.4-4.2,7.4-9c0-5.8-4.2-9.4-11.3-9.4h-9.4v31.6h6.1V39.5h1l8.7,12.6h7.4L190,38.9z M184.8,35
	h-1.9v-9.7h1.9c3.9,0,6.1,1.6,6.1,4.8C191,33.4,188.7,35,184.8,35z"/>
<path class="st1" d="M190,38.9c4.8-1,7.4-4.2,7.4-9c0-5.8-4.2-9.4-11.3-9.4h-9.4v31.6h6.1V39.5h1l8.7,12.6h7.4L190,38.9z M184.8,35
	h-1.9v-9.7h1.9c3.9,0,6.1,1.6,6.1,4.8C191,33.4,188.7,35,184.8,35z"/>
<g>
	<path class="st1" d="M45.5,81.5V63.7l12.3,12.6V64.7h2.6v17.7L48.1,69.9v11.6L45.5,81.5L45.5,81.5z"/>
	<path class="st1" d="M73.2,67.3h-6.8v3.9h6.5v2.6h-6.5v5.5h6.8v2.3h-9.4V64.7h9.4V67.3z"/>
	<path class="st1" d="M81.3,67.3v14.2h-2.6V67.3h-3.9V65h10.3v2.3H81.3z"/>
	<path class="st1" d="M89,65l4.2,11.3l4.5-11.9l4.2,11.9l4.5-11.3h3.2l-7.4,17.7l-4.2-11.9l-4.5,11.9L86.5,65H89z"/>
	<path class="st1" d="M110,73.1c0-2.3,1-4.5,2.6-6.1c1.6-1.6,3.9-2.6,6.1-2.6c2.3,0,4.5,1,6.1,2.6c1.6,1.6,2.6,3.9,2.6,6.1
		s-1,4.5-2.6,6.1c-1.6,1.6-3.9,2.6-6.1,2.6c-2.3,0-4.2-0.6-5.8-2.3C111,77.9,110,76,110,73.1z M112.6,73.1c0,1.9,0.6,3.2,1.9,4.5
		c1.3,1.3,2.6,1.9,4.2,1.9c1.6,0,3.2-0.6,4.5-1.9c1.3-1.3,1.9-2.6,1.9-4.5c0-1.9-0.6-3.2-1.9-4.5c-1.3-1.3-2.6-1.9-4.5-1.9
		c-1.6,0-3.2,0.6-4.5,1.9C113.2,69.9,112.6,71.5,112.6,73.1z"/>
	<path class="st1" d="M136.5,74.4l5.2,7.1h-3.2l-4.8-6.8h-0.3v6.8h-2.6V64.7h2.9c2.3,0,3.9,0.3,4.8,1.3c1,1,1.6,2.3,1.6,3.5
		s-0.3,2.3-1,2.9C138.4,73.7,137.4,74.4,136.5,74.4z M133.2,72.5h0.6c2.3,0,3.5-1,3.5-2.6c0-1.6-1.3-2.6-3.5-2.6h-1v5.2H133.2z"/>
	<path class="st1" d="M146.5,71.5l6.5-6.8h3.2l-7.4,7.4l7.4,9h-3.2l-6.1-7.4l-0.6,0.6v6.8h-2.6V64.4h2.6v7.1H146.5z"/>
</g>
</svg>
