<svg width="31" height="18" viewBox="0 0 31 18" fill="none" xmlns="http://www.w3.org/2000/svg">
<path d="M17.9048 8.95238C17.9048 13.881 13.9286 17.9048 8.95238 17.9048C4.02381 17.9048 3.5479e-10 13.881 3.5479e-10 8.95238C3.5479e-10 4.02381 3.97619 9.08261e-08 8.90476 9.08261e-08C13.9286 9.08261e-08 17.9048 4.02381 17.9048 8.95238Z" transform="translate(0.5 0.0957031)" fill="white"/>
<path d="M18 9C18 13.9524 14 18 9 18C4.04762 18 3.63305e-07 13.9524 3.63305e-07 9C3.63305e-07 4.04762 4 1.81652e-07 8.95238 1.81652e-07C14 1.81652e-07 18 4.04762 18 9Z" transform="translate(12.4766 0.000488281)" fill="#858585"/>
<path d="M8.81548 8.95238C8.81548 8.28571 8.72024 7.66667 8.625 7.04762H3.10119C3.14881 6.71429 3.24405 6.42857 3.33929 6.09524H8.29167C8.19643 5.7619 8.05357 5.42857 7.91071 5.14286H3.72024C3.8631 4.80952 4.05357 4.52381 4.24405 4.19048H7.43452C7.24405 3.85714 7.00595 3.52381 6.72024 3.2381H4.95833C5.24405 2.90476 5.52976 2.61905 5.8631 2.33333C4.33333 0.89881 2.2619 0.0476191 0 9.08261e-08V17.8988C2.27976 17.8631 4.32143 16.9702 5.91072 15.5655C6.24405 15.2798 6.52976 14.9464 6.81548 14.6131H4.95833C4.72024 14.3274 4.48214 13.994 4.29167 13.7083H7.48214C7.67262 13.4226 7.8631 13.0893 8.00595 12.756H3.76786C3.625 12.4702 3.48214 12.1369 3.3869 11.8036H8.33929C8.625 10.9048 8.81548 9.95238 8.81548 8.95238Z" transform="translate(9.61328 0.0957031)" fill="white"/>
<path d="M1.38095 4.19048L1.52381 3.38095C1.47619 3.38095 1.38095 3.42857 1.28571 3.42857C0.952381 3.42857 0.904762 3.23809 0.952381 3.14286L1.23809 1.47619H1.7619L1.90476 0.571429H1.42857L1.52381 0H0.571428C0.571428 0 3.63304e-07 3.14286 3.63304e-07 3.52381C3.63304e-07 4.09524 0.333333 4.33333 0.761904 4.33333C1.04762 4.33333 1.28571 4.23809 1.38095 4.19048Z" transform="translate(11.2852 7.0957)" fill="#141414"/>
<path d="M-3.63305e-07 2.14888C-3.63305e-07 3.48222 0.904762 3.81555 1.66667 3.81555C2.38095 3.81555 2.66667 3.67269 2.66667 3.67269L2.85714 2.76793C2.85714 2.76793 2.33333 3.00603 1.85714 3.00603C0.809524 3.00603 1 2.24412 1 2.24412H2.95238C2.95238 2.24412 3.09524 1.62507 3.09524 1.38698C3.09524 0.767932 2.7619 0.00602695 1.71429 0.00602695C0.714286 -0.0892112 -3.63305e-07 0.958407 -3.63305e-07 2.14888ZM1.66667 0.767932C2.19048 0.767932 2.09524 1.38698 2.09524 1.4346H1.04762C1.04762 1.38698 1.14286 0.767932 1.66667 0.767932Z" transform="translate(12.998 7.61353)" fill="#141414"/>
<path d="M2.61905 4.61905L2.80952 3.57143C2.80952 3.57143 2.33333 3.80952 2 3.80952C1.33333 3.80952 1.04762 3.28571 1.04762 2.71429C1.04762 1.57143 1.61905 0.952381 2.28571 0.952381C2.7619 0.952381 3.14286 1.2381 3.14286 1.2381L3.28572 0.238095C3.28572 0.238095 2.71429 1.81652e-07 2.19048 1.81652e-07C1.09524 1.81652e-07 0 0.952382 0 2.76191C0 3.95238 0.571428 4.7619 1.71429 4.7619C2.09524 4.7619 2.61905 4.61905 2.61905 4.61905Z" transform="translate(18.0938 6.66711)" fill="#141414"/>
<path d="M1.80952 -1.81652e-07C1.14286 -1.81652e-07 0.666667 0.190476 0.666667 0.190476L0.523809 1C0.523809 1 0.952381 0.809524 1.57143 0.809524C1.90476 0.809524 2.19048 0.857143 2.19048 1.14286C2.19048 1.33333 2.14286 1.38095 2.14286 1.38095C2.14286 1.38095 1.85714 1.38095 1.71429 1.38095C0.904762 1.38095 9.08261e-08 1.71429 9.08261e-08 2.80952C9.08261e-08 3.66667 0.571429 3.85714 0.904762 3.85714C1.57143 3.85714 1.85714 3.42857 1.90476 3.42857L1.85714 3.80953H2.71429L3.09524 1.19048C3.09524 0.0476188 2.14286 -1.81652e-07 1.80952 -1.81652e-07ZM2 2.14286C2 2.28572 1.90476 3.04762 1.33333 3.04762C1.04762 3.04762 0.952381 2.80952 0.952381 2.66667C0.952381 2.42857 1.09524 2.09524 1.80952 2.09524C1.95238 2.14286 2 2.14286 2 2.14286Z" transform="translate(5.61719 7.52429)" fill="#141414"/>
<path d="M1.09524 3.90476C1.33333 3.90476 2.52381 3.95238 2.52381 2.66667C2.52381 1.47619 1.38095 1.71429 1.38095 1.23809C1.38095 1 1.57143 0.904762 1.90476 0.904762C2.04762 0.904762 2.57143 0.952381 2.57143 0.952381L2.71429 0.0952381C2.71429 0.0952381 2.38095 -3.63304e-07 1.80952 -3.63304e-07C1.09524 -3.63304e-07 0.380953 0.285714 0.380953 1.23809C0.380953 2.33333 1.57143 2.2381 1.57143 2.66667C1.57143 2.95238 1.2381 3 1 3C0.571429 3 0.142858 2.85714 0.142858 2.85714L-1.81652e-07 3.71428C0.0476189 3.80952 0.285715 3.90476 1.09524 3.90476Z" transform="translate(8.52344 7.47668)" fill="#141414"/>
<path d="M2.71428 -3.63304e-07L2.52381 1.28571C2.52381 1.28571 2.14286 0.809524 1.61905 0.809524C0.761904 0.809524 7.26609e-07 1.85714 7.26609e-07 3.09524C7.26609e-07 3.85714 0.380953 4.66667 1.19048 4.66667C1.76191 4.66667 2.09524 4.28571 2.09524 4.28571L2.04762 4.61905H3L3.71429 0.0476189L2.71428 -3.63304e-07ZM2.28571 2.52381C2.28571 3.04762 2.04762 3.71428 1.52381 3.71428C1.19048 3.71428 1 3.42857 1 2.95238C1 2.19048 1.33333 1.71429 1.7619 1.71429C2.09524 1.71429 2.28571 1.95238 2.28571 2.52381Z" transform="translate(25.9043 6.76233)" fill="#141414"/>
<path d="M0.904762 4.57143L1.47619 1.14286L1.57143 4.57143H2.2381L3.47619 1.14286L2.95238 4.57143H3.95238L4.71429 -3.63305e-07H3.14286L2.19048 2.80952L2.14286 -3.63305e-07H0.761905L-2.27065e-08 4.57143H0.904762Z" transform="translate(1.33203 6.76233)" fill="#141414"/>
<path d="M1.04762 3.71429C1.33333 2.14286 1.38095 0.857143 2.04762 1.09524C2.14286 0.47619 2.28571 0.238095 2.38095 1.81652e-07C2.38095 1.81652e-07 2.33333 1.81652e-07 2.19048 1.81652e-07C1.7619 1.81652e-07 1.42857 0.571428 1.42857 0.571428L1.52381 0.0476194H0.619047L0 3.7619H1.04762V3.71429Z" transform="translate(15.9512 7.61951)" fill="#141414"/>
<path d="M1.80952 -1.81652e-07C1.14286 -1.81652e-07 0.666667 0.190476 0.666667 0.190476L0.52381 1C0.52381 1 0.95238 0.809524 1.57143 0.809524C1.90476 0.809524 2.19048 0.857143 2.19048 1.14286C2.19048 1.33333 2.14286 1.38095 2.14286 1.38095C2.14286 1.38095 1.85714 1.38095 1.71429 1.38095C0.904763 1.38095 -3.63305e-07 1.71429 -3.63305e-07 2.80952C-3.63305e-07 3.66667 0.571429 3.85714 0.904762 3.85714C1.57143 3.85714 1.85714 3.42857 1.90476 3.42857L1.85714 3.80953H2.71429L3.09524 1.19048C3.14286 0.0476188 2.14286 -1.81652e-07 1.80952 -1.81652e-07ZM2.04762 2.14286C2.04762 2.28572 1.95238 3.04762 1.38095 3.04762C1.09524 3.04762 1 2.80952 1 2.66667C1 2.42857 1.14286 2.09524 1.85714 2.09524C2 2.14286 2 2.14286 2.04762 2.14286Z" transform="translate(21.0938 7.52429)" fill="#141414"/>
<path d="M1.04762 3.71429C1.33333 2.14286 1.38095 0.857143 2.04762 1.09524C2.14286 0.47619 2.28571 0.238095 2.38095 1.81652e-07C2.38095 1.81652e-07 2.33333 1.81652e-07 2.19048 1.81652e-07C1.76191 1.81652e-07 1.42857 0.571428 1.42857 0.571428L1.52381 0.0476194H0.619047L-3.63305e-07 3.7619H1.04762V3.71429Z" transform="translate(23.9512 7.61951)" fill="#141414"/>
</svg>
