<svg width="40" height="14" viewBox="0 0 40 14" fill="none" xmlns="http://www.w3.org/2000/svg">
<path d="M3.32589 6.65178C5.16273 6.65178 6.65177 5.16273 6.65177 3.32589C6.65177 1.48905 5.16273 0 3.32589 0C1.48905 0 0 1.48905 0 3.32589C0 5.16273 1.48905 6.65178 3.32589 6.65178Z" transform="translate(17.916 0.764404)" fill="#BDBDBD"/>
<path d="M1.79086 -4.87971e-07H0V6.26802H1.79086C2.75025 6.26802 3.45381 6.01218 4.02944 5.56447C4.733 4.98883 5.18071 4.0934 5.18071 3.13401C5.18071 1.27919 3.83756 -4.87971e-07 1.79086 -4.87971e-07ZM3.26193 4.733C2.87817 5.05279 2.3665 5.24467 1.59898 5.24467H1.21523V1.08731H1.53503C2.30254 1.08731 2.81421 1.21523 3.19797 1.59898C3.64569 1.98274 3.90152 2.55838 3.90152 3.13401C3.96548 3.70964 3.70964 4.34924 3.26193 4.733Z" transform="translate(0.199219 0.956299)" fill="white"/>
<path d="M1.21523 0H0V6.26802H1.21523V0Z" transform="translate(5.95508 0.956299)" fill="white"/>
<path d="M2.55838 2.49442C1.79086 2.23858 1.59898 2.0467 1.59898 1.7269C1.59898 1.34315 1.98274 1.02335 2.49442 1.02335C2.87817 1.02335 3.19797 1.15127 3.51777 1.53503L4.15736 0.703553C3.64569 0.255837 3.00609 4.87971e-07 2.30254 4.87971e-07C1.21523 4.87971e-07 0.319797 0.767513 0.319797 1.79086C0.319797 2.68629 0.703553 3.07005 1.85482 3.51777C2.3665 3.70965 2.55838 3.7736 2.68629 3.90152C2.94213 4.02944 3.07005 4.28528 3.07005 4.54112C3.07005 5.05279 2.68629 5.43655 2.11066 5.43655C1.53503 5.43655 1.02335 5.11675 0.767512 4.60508L-1.21993e-07 5.37259C0.575634 6.20406 1.27919 6.58782 2.17462 6.58782C3.45381 6.58782 4.34924 5.75634 4.34924 4.54112C4.34924 3.45381 3.96548 3.00609 2.55838 2.49442Z" transform="translate(7.68359 0.892334)" fill="white"/>
<path d="M2.43986e-07 3.38985C2.43986e-07 5.24467 1.47107 6.65178 3.32589 6.65178C3.83756 6.65178 4.28528 6.52386 4.86091 6.26802V4.79695C4.34924 5.30863 3.90152 5.50051 3.38985 5.50051C2.17462 5.50051 1.27919 4.60508 1.27919 3.32589C1.27919 2.11066 2.17462 1.15127 3.32589 1.15127C3.90152 1.15127 4.34924 1.34315 4.86091 1.85482V0.383756C4.34924 0.127919 3.90152 -2.43986e-07 3.32589 -2.43986e-07C1.53502 0.127919 2.43986e-07 1.59898 2.43986e-07 3.38985Z" transform="translate(12.416 0.700439)" fill="white"/>
<path d="M3.00609 4.22132L1.34315 -4.87971e-07H4.87971e-07L2.62233 6.4599H3.32589L6.07614 -4.87971e-07H4.73299L3.00609 4.22132Z" transform="translate(24.3125 0.956299)" fill="white"/>
<path d="M0 6.26802H3.51777V5.24467H1.27919V3.51777H3.45381V2.43046H1.27919V1.08731H3.51777V-4.87971e-07H0V6.26802Z" transform="translate(30.9004 0.956299)" fill="white"/>
<path d="M2.62234 3.64568C3.58173 3.45381 4.0934 2.81421 4.0934 1.85482C4.0934 0.703554 3.26193 -4.87971e-07 1.85482 -4.87971e-07H-4.87971e-07V6.26802H1.21523V3.7736H1.40711L3.13401 6.26802H4.60508L2.62234 3.64568ZM1.59898 2.87817H1.21523V0.95939H1.59898C2.3665 0.95939 2.81421 1.27919 2.81421 1.91878C2.81421 2.55838 2.3665 2.87817 1.59898 2.87817Z" transform="translate(35.25 0.956299)" fill="white"/>
<path d="M2.62234 3.64568C3.58173 3.45381 4.0934 2.81421 4.0934 1.85482C4.0934 0.703554 3.26193 -4.87971e-07 1.85482 -4.87971e-07H-4.87971e-07V6.26802H1.21523V3.7736H1.40711L3.13401 6.26802H4.60508L2.62234 3.64568ZM1.59898 2.87817H1.21523V0.95939H1.59898C2.3665 0.95939 2.81421 1.27919 2.81421 1.91878C2.81421 2.55838 2.3665 2.87817 1.59898 2.87817Z" transform="translate(35.25 0.956299)" fill="white"/>
<path d="M2.43986e-07 3.51777V4.87971e-07L2.43046 2.49442V0.191878H2.94213V3.70964L0.511675 1.21523V3.51777H2.43986e-07Z" transform="translate(9.21875 9.52686)" fill="#858585"/>
<path d="M1.85482 0.511675H0.511675V1.27919H1.79086V1.79086H0.511675V2.87817H1.85482V3.32589H-4.87971e-07V0H1.85482V0.511675Z" transform="translate(12.8633 9.71875)" fill="#858585"/>
<path d="M1.27919 0.447715V3.26193H0.767513V0.447715H4.87971e-07V-9.75943e-07H2.0467V0.447715H1.27919Z" transform="translate(15.0391 9.78271)" fill="#858585"/>
<path d="M0.511675 0.127918L1.34315 2.3665L2.23858 9.75943e-07L3.07005 2.3665L3.96548 0.127918H4.60508L3.13401 3.64568L2.30254 1.27919L1.40711 3.64568L-4.87971e-07 0.127918H0.511675Z" transform="translate(17.3418 9.65479)" fill="#858585"/>
<path d="M-9.75943e-07 1.7269C-9.75943e-07 1.27919 0.191879 0.831473 0.511676 0.511676C0.831473 0.191879 1.27919 9.75943e-07 1.7269 9.75943e-07C2.17462 9.75943e-07 2.62234 0.191879 2.94213 0.511676C3.26193 0.831473 3.45381 1.27919 3.45381 1.7269C3.45381 2.17462 3.26193 2.62233 2.94213 2.94213C2.62234 3.26193 2.17462 3.45381 1.7269 3.45381C1.27919 3.45381 0.895431 3.32589 0.575634 3.00609C0.191878 2.68629 -9.75943e-07 2.30254 -9.75943e-07 1.7269ZM0.511676 1.7269C0.511676 2.11066 0.639594 2.3665 0.895431 2.62233C1.15127 2.87817 1.40711 3.00609 1.7269 3.00609C2.0467 3.00609 2.3665 2.87817 2.62234 2.62233C2.87817 2.3665 3.00609 2.11066 3.00609 1.7269C3.00609 1.34315 2.87817 1.08731 2.62234 0.831473C2.3665 0.575635 2.11066 0.447715 1.7269 0.447715C1.40711 0.447715 1.08731 0.575635 0.831473 0.831473C0.639595 1.08731 0.511676 1.40711 0.511676 1.7269Z" transform="translate(22.0098 9.65479)" fill="#858585"/>
<path d="M1.15127 1.91878L2.17462 3.32589H1.53503L0.575635 1.98274H0.511675V3.32589H0V0H0.575635C1.02335 0 1.34315 0.0639604 1.53503 0.255839C1.7269 0.447717 1.85482 0.703553 1.85482 0.959391C1.85482 1.21523 1.79086 1.40711 1.66294 1.53503C1.53502 1.79086 1.34315 1.91878 1.15127 1.91878ZM0.511675 1.53503H0.639594C1.08731 1.53503 1.34315 1.34315 1.34315 1.02335C1.34315 0.703552 1.08731 0.511675 0.639594 0.511675H0.447716V1.53503H0.511675Z" transform="translate(26.1035 9.71875)" fill="#858585"/>
<path d="M0.575635 1.40711L1.85482 0.0639594H2.49442L1.02335 1.53502L2.49442 3.32589H1.85482L0.639594 1.85482L0.511675 1.98274V3.32589H0V9.75943e-07H0.511675V1.40711H0.575635Z" transform="translate(28.6621 9.65479)" fill="#858585"/>
</svg>
