<?xml version="1.0" encoding="utf-8"?>
<!-- Generator: Adobe Illustrator 22.0.1, SVG Export Plug-In . SVG Version: 6.00 Build 0)  -->
<svg version="1.1" id="Layer_1" xmlns="http://www.w3.org/2000/svg" xmlns:xlink="http://www.w3.org/1999/xlink" x="0px" y="0px"
	 viewBox="0 0 200 100" style="enable-background:new 0 0 200 100;" xml:space="preserve">
<style type="text/css">
	.st0{fill:#DDDDDD;}
	.st1{fill:#141414;}
	.st2{fill:#919191;}
	.st3{fill:#858585;}
	.st4{fill:#FFFFFF;}
	.st5{fill:#333333;}
</style>
<path class="st0" d="M67.9,21.6c-0.5-0.2-16.6-4.7-33.3-4.7S1.4,21.6,1.4,21.6c-4.3,52,33.1,64.7,33.1,64.7S72.2,73.5,67.9,21.6z
	 M34.6,82.9c0,0-33.9-11.5-30-58.6c0,0,14.9-4.3,30-4.3s29.7,4.1,30.1,4.3C68.7,71.4,34.6,82.9,34.6,82.9z"/>
<path class="st1" d="M34.6,77.1c0,0-28.4-10.4-25.1-49.9c0,0,12.5,1,25.1,1c12.7,0,24.9-1,25.3-1C63.1,66.6,34.6,77.1,34.6,77.1z"/>
<g>
	<g>
		<polygon class="st4" points="19.4,60.1 23.5,33.6 30.2,33.6 38.5,60.1 31.4,60.1 27.8,46.4 25.8,60.1 		"/>
	</g>
</g>
<g>
	<g>
		<polygon class="st4" points="39.5,33.6 46.2,33.6 50.1,60.1 43.7,60.1 41.4,46.4 39.1,57.1 35.6,46.4 		"/>
	</g>
</g>
<g>
	<path class="st1" d="M92.5,46.4h-5.2l-5-12.7h0l-1.8,12.7h-5.7l3.7-23.7H84L92.5,46.4z M88.8,34.3l4.3-11.6h5.7l3.3,23.7h-5.7
		l-1.6-12.7h0l-3.3,7.6L88.8,34.3z"/>
	<path class="st1" d="M123.7,42.3l-1.4,4.1h-5.7l8-23.7h5.9l7.8,23.7h-5.7l-1.3-4.1H123.7z M127.4,30L127.4,30l-2.3,7.5h4.5
		L127.4,30z"/>
	<path class="st1" d="M166.9,39.3h-11.1c0,2.3,1.1,3.6,3.3,3.6c1.1,0,2-0.4,2.5-1.5h5.1c-0.4,1.9-1.5,3.3-2.8,4.2
		c-1.4,0.9-3,1.3-4.7,1.3c-4.9,0-8.6-3-8.6-8.6c0-5.4,3.4-8.6,8.2-8.6c5.2,0,8.2,3.4,8.2,9L166.9,39.3L166.9,39.3z M162.1,36
		c-0.3-1.5-1.6-2.6-3-2.6c-1.5,0-2.8,0.9-3.1,2.6H162.1z"/>
	<path class="st1" d="M185.2,39.3h-11.1c0,2.3,1.1,3.6,3.3,3.6c1.1,0,2-0.4,2.5-1.5h5.1c-0.4,1.9-1.5,3.3-2.8,4.2
		c-1.4,0.9-3,1.3-4.7,1.3c-4.9,0-8.6-3-8.6-8.6c0-5.4,3.4-8.6,8.2-8.6c5.2,0,8.2,3.4,8.2,9L185.2,39.3L185.2,39.3z M180.3,36
		c-0.3-1.5-1.6-2.6-3-2.6c-1.5,0-2.8,0.9-3.1,2.6H180.3z"/>
	<path class="st1" d="M185.9,27.1c0-2.3,1.8-4.1,4.1-4.1s4.1,1.8,4.1,4.1s-1.8,4.1-4.1,4.1C187.6,31.1,185.9,29.4,185.9,27.1z
		 M186.5,27.1c0,1.9,1.5,3.4,3.4,3.4c1.8,0,3.4-1.5,3.4-3.4c0-1.9-1.5-3.4-3.4-3.4C188.1,23.7,186.5,25.2,186.5,27.1z M191.8,29.4
		H191l-1.1-2.1H189v2.1h-0.7v-4.6h1.9c0.8,0,1.6,0.2,1.6,1.2c0,0.9-0.6,1.2-1.2,1.2L191.8,29.4z M189,25.5v1.1h0.7
		c0.6,0,1.5,0.1,1.5-0.5c0-0.6-0.5-0.6-1-0.6L189,25.5L189,25.5z"/>
</g>
<g>
	<path class="st1" d="M140.2,34.1h-3.1v-3.9h3.2v-1.9c0-4.8,2.1-6.4,6.3-6.4c1.1,0,2,0.2,2.7,0.3l-0.3,3.8c-0.4-0.2-0.9-0.2-1.6-0.2
		c-1.3,0-1.8,1-1.8,2.6v1.9h3.7v3.9h-3.7v12.2h-5.2L140.2,34.1L140.2,34.1z"/>
</g>
<g>
	<path class="st1" d="M86.6,57.7c-1.7-0.7-2.6-0.9-4.3-0.9c-1.8,0-4,0.7-4,3c0,4.3,9.9,3.3,9.9,10.6c0,4.7-3.8,6.6-8.4,6.6
		c-1.6,0-3.2-0.5-4.7-0.9l0.3-3c1.1,0.5,3.1,1.1,4.8,1.1c1.9,0,4.5-1,4.5-3.6c0-5-9.9-3.6-9.9-10.5c0-3.9,3.2-6,7.4-6
		c1.5,0,3.3,0.3,4.9,0.8L86.6,57.7z"/>
	<path class="st1" d="M92.7,54.3h12.9v2.8H96v6.5h8.7v2.8H96v7.3h9.6v2.8H92.7L92.7,54.3L92.7,54.3z"/>
	<path class="st1" d="M125.4,58c-1.5-0.8-3.1-1.3-4.7-1.3c-5.3,0-8.8,3.7-8.8,8.7c0,5.2,3.9,8.7,8.6,8.7c1.6,0,3.9-0.4,5-1.1
		l0.2,3.1c-1.8,0.7-3.9,0.8-5.2,0.8c-7.3,0-12.1-4.5-12.1-11.6c0-6.9,5.1-11.4,12.1-11.4c1.8,0,3.5,0.3,5.2,1L125.4,58z"/>
	<path class="st1" d="M146.2,67.4c0,6.2-3.3,9.6-8.9,9.6s-8.9-3.4-8.9-9.6V54.3h3.3v12.6c0,4.3,1.4,7.2,5.6,7.2s5.6-2.9,5.6-7.2
		V54.3h3.3L146.2,67.4L146.2,67.4z"/>
	<path class="st1" d="M151.5,54.3h5.6c4.6,0,8.9,0.7,8.9,6c0,2.7-2.1,4.6-4.7,5.1v0.1c1,0.4,1.5,0.8,2.2,2.2l4.4,8.9h-3.8l-3.5-7.7
		c-1-2.2-2.1-2.2-3.9-2.2h-2v9.9h-3.3V54.3z M154.8,63.9h2.8c3.1,0,5-1.3,5-3.5c0-2-1.6-3.3-4.6-3.3h-3.2V63.9z"/>
	<path class="st1" d="M171.6,54.3h12.9v2.8h-9.6v6.5h8.7v2.8h-8.7v7.3h9.6v2.8h-12.9V54.3z"/>
</g>
<path class="st1" d="M115.2,35.3c-1-0.6-1.9-0.9-3.2-0.9c-2.3,0-4,1.6-4,4.4c0,2.6,2,4.2,4.3,4.2c1.2,0,2.4-0.3,3.3-0.8l0.1,4.1
	c-1.3,0.5-2.9,0.7-4.2,0.7c-5,0-8.8-3.1-8.8-8.4c0-5.3,3.8-8.4,8.8-8.4c1.6,0,2.9,0.3,4.1,0.9L115.2,35.3z"/>
</svg>
