<svg width="37" height="12" viewBox="0 0 37 12" fill="none" xmlns="http://www.w3.org/2000/svg">
<path d="M2.16835e-07 10.2316L1.81895 -4.33671e-07H4.66105L2.89895 10.2316H2.16835e-07Z" transform="translate(13.6309 1.50049)" fill="white"/>
<path d="M8.69684 0.454737C8.12842 0.227368 7.21895 4.33671e-07 6.08211 4.33671e-07C3.24 4.33671e-07 1.19368 1.42105 1.19368 3.46737C1.19368 5.00211 2.61474 5.79789 3.75158 6.30947C4.88842 6.82105 5.22947 7.16211 5.22947 7.61684C5.22947 8.29895 4.32 8.64 3.52421 8.64C2.38737 8.64 1.76211 8.46948 0.79579 8.07158L0.397895 7.90105L0 10.2316C0.682105 10.5158 1.93263 10.8 3.24 10.8C6.25263 10.8 8.24211 9.37895 8.24211 7.21895C8.24211 6.02526 7.50316 5.11579 5.79789 4.37684C4.77474 3.86526 4.14947 3.58105 4.14947 3.06947C4.14947 2.61474 4.66105 2.16 5.79789 2.16C6.76421 2.16 7.44632 2.33053 7.95789 2.5579L8.24211 2.67158L8.69684 0.454737Z" transform="translate(18.1211 1.15942)" fill="white"/>
<path d="M5.74105 -4.33671e-07C5.05895 -4.33671e-07 4.54737 0.0568423 4.26316 0.738948L-4.33671e-07 10.2316H3.06947L3.6379 8.52631H7.27579L7.61684 10.2316H10.3453L7.95789 -4.33671e-07H5.74105ZM4.43368 6.82105C4.60421 6.30947 5.57053 3.80842 5.57053 3.80842C5.57053 3.80842 5.79789 3.18316 5.96842 2.78526L6.13895 3.75158C6.13895 3.75158 6.70737 6.30947 6.82105 6.8779H4.43368V6.82105Z" transform="translate(25.9648 1.50049)" fill="white"/>
<path d="M4.26316 7.10526L3.97895 5.62737C3.46737 3.92211 1.81895 2.04632 5.42089e-08 1.13684L2.55789 10.2316H5.62737L10.2316 -2.16835e-07H7.16211L4.26316 7.10526Z" transform="translate(4.13867 1.55737)" fill="white"/>
<path d="M7.58842 5.56342C7.59553 5.58474 7.60263 5.60605 7.61684 5.62737L7.51026 5.19395L6.59368 0.852631C6.42316 0.170526 5.91158 -4.33671e-07 5.28632 -4.33671e-07H0L1.81184 0.55421C4.05 1.40684 5.90447 2.78526 6.97026 4.38395C7.23316 4.80316 7.44631 5.23658 7.61684 5.68421L7.58842 5.56342Z" transform="translate(0.5 0.600464)" fill="#858585"/>
</svg>
