<?xml version="1.0" encoding="utf-8"?>
<!-- Generator: Adobe Illustrator 22.0.1, SVG Export Plug-In . SVG Version: 6.00 Build 0)  -->
<svg version="1.1" id="Layer_1" xmlns="http://www.w3.org/2000/svg" xmlns:xlink="http://www.w3.org/1999/xlink" x="0px" y="0px"
	 viewBox="0 0 50 50" style="enable-background:new 0 0 50 50;" xml:space="preserve">
<path d="M38.8,10H11.2c-0.6,0-1.2,0.5-1.2,1.2v27.7c0,0.6,0.5,1.2,1.2,1.2h27.7c0.6,0,1.2-0.5,1.2-1.2V11.2C40,10.5,39.5,10,38.8,10
	z M12,38v-5.5c1.3,2.3,3.2,4.2,5.5,5.5H12z M12,17.5V12h5.5C15.2,13.3,13.3,15.2,12,17.5z M38,38h-5.5c2.3-1.3,4.2-3.2,5.5-5.5V38z
	 M38,17.5c-1.3-2.3-3.2-4.2-5.5-5.5H38V17.5z"/>
</svg>
