<?xml version="1.0" encoding="utf-8"?>
<!-- Generator: Adobe Illustrator 22.0.1, SVG Export Plug-In . SVG Version: 6.00 Build 0)  -->
<svg version="1.1" id="Layer_1" xmlns="http://www.w3.org/2000/svg" xmlns:xlink="http://www.w3.org/1999/xlink" x="0px" y="0px"
	 viewBox="0 0 115.7 100" style="enable-background:new 0 0 115.7 100;" xml:space="preserve">
<style type="text/css">
	.st0{fill:#DDDDDD;}
	.st1{fill:#141414;}
	.st2{fill:#919191;}
	.st3{fill:#858585;}
	.st4{fill:#FFFFFF;}
	.st5{fill:#333333;}
</style>
<path class="st1" d="M68,51.2C68,69.8,53,85,34.2,85C15.6,85,0.4,69.8,0.4,51.2l0,0c0-18.6,15-33.8,33.6-33.8
	C53,17.4,68,32.6,68,51.2L68,51.2z"/>
<path class="st3" d="M113.6,51c0,18.7-15.1,34-34,34c-18.7,0-34-15.3-34-34l0,0c0-18.7,15.1-34,33.8-34C98.5,17,113.6,32.3,113.6,51
	L113.6,51z"/>
<path class="st1" d="M68.1,51.2c0-2.5-0.4-4.9-0.7-7.2H46.5c0.2-1.3,0.5-2.3,0.9-3.6h18.7c-0.4-1.3-0.9-2.5-1.4-3.6H48.9
	c0.5-1.3,1.3-2.3,2-3.6h12.1c-0.7-1.3-1.6-2.5-2.7-3.6h-6.7c1.1-1.3,2.2-2.3,3.4-3.4c-5.8-5.4-13.6-8.6-22.1-8.8V85
	c8.6-0.1,16.3-3.5,22.3-8.8c1.3-1.1,2.3-2.3,3.4-3.6h-7c-0.9-1.1-1.8-2.3-2.5-3.4h12.1c0.7-1.1,1.4-2.3,2-3.6H49
	c-0.5-1.1-1.1-2.3-1.4-3.6h18.7C67.4,58.6,68.1,55,68.1,51.2z"/>
<g>
	<path class="st4" d="M46.3,59.6l0.5-3.1c-0.2,0-0.5,0.2-0.9,0.2c-1.3,0-1.4-0.7-1.3-1.1l1.1-6.3h2l0.5-3.4h-1.8l0.4-2.2h-3.6
		c0,0-2.2,11.9-2.2,13.3c0,2.2,1.3,3.1,2.9,3.1C45.1,60.2,46,59.8,46.3,59.6z"/>
	<path class="st4" d="M47.6,53.9c0,5,3.4,6.3,6.3,6.3c2.7,0,3.8-0.5,3.8-0.5l0.7-3.4c0,0-2,0.9-3.8,0.9c-4,0-3.2-2.9-3.2-2.9h7.4
		c0,0,0.5-2.3,0.5-3.2c0-2.3-1.3-5.2-5.2-5.2C50.3,45.4,47.6,49.4,47.6,53.9z M53.9,48.7c2,0,1.6,2.3,1.6,2.5h-4
		C51.6,51,51.9,48.7,53.9,48.7z"/>
	<path class="st4" d="M76.7,59.6l0.7-4c0,0-1.8,0.9-3.1,0.9c-2.5,0-3.6-2-3.6-4.1c0-4.3,2.2-6.7,4.7-6.7c1.8,0,3.2,1.1,3.2,1.1
		l0.5-3.8c0,0-2.2-0.9-4.1-0.9c-4.1,0-8.3,3.6-8.3,10.4c0,4.5,2.2,7.6,6.5,7.6C74.8,60.2,76.7,59.6,76.7,59.6z"/>
	<path class="st4" d="M26.6,45.4c-2.5,0-4.3,0.7-4.3,0.7l-0.5,3.1c0,0,1.6-0.7,4-0.7c1.3,0,2.3,0.2,2.3,1.3c0,0.7-0.2,0.9-0.2,0.9
		s-1.1,0-1.6,0c-3.1,0-6.5,1.3-6.5,5.4c0,3.2,2.2,4,3.4,4c2.5,0,3.6-1.6,3.8-1.6l-0.2,1.4H30l1.4-9.9C31.4,45.6,27.8,45.4,26.6,45.4
		z M27.3,53.5c0,0.5-0.4,3.4-2.5,3.4c-1.1,0-1.4-0.9-1.4-1.4c0-0.9,0.5-2.2,3.2-2.2C27.1,53.5,27.3,53.5,27.3,53.5z"/>
	<path class="st4" d="M34.8,60c0.9,0,5.4,0.2,5.4-4.7c0-4.5-4.3-3.6-4.3-5.4c0-0.9,0.7-1.3,2-1.3c0.5,0,2.5,0.2,2.5,0.2l0.5-3.2
		c0,0-1.3-0.4-3.4-0.4c-2.7,0-5.4,1.1-5.4,4.7c0,4.1,4.5,3.8,4.5,5.4c0,1.1-1.3,1.3-2.2,1.3c-1.6,0-3.2-0.5-3.2-0.5l-0.5,3.2
		C30.9,59.6,31.8,60,34.8,60z"/>
	<path class="st4" d="M106.6,42.5l-0.7,4.9c0,0-1.4-1.8-3.4-1.8c-3.2,0-6.1,4-6.1,8.6c0,2.9,1.4,5.9,4.5,5.9c2.2,0,3.4-1.4,3.4-1.4
		l-0.2,1.3h3.6l2.7-17.3L106.6,42.5z M105,52.1c0,2-0.9,4.5-2.9,4.5c-1.3,0-2-1.1-2-2.9c0-2.9,1.3-4.7,2.9-4.7
		C104.3,49,105,49.9,105,52.1z"/>
	<path class="st4" d="M6.9,59.8l2.2-13l0.4,13H12l4.7-13l-2,13h3.8l2.9-17.3h-5.9l-3.6,10.6l-0.2-10.6H6.4L3.5,59.8H6.9z"/>
	<path class="st4" d="M62.7,59.8c1.1-5.9,1.3-10.8,3.8-9.9c0.4-2.3,0.9-3.2,1.3-4.1c0,0-0.2,0-0.7,0c-1.6,0-2.9,2.2-2.9,2.2l0.4-2
		h-3.4l-2.3,14h4V59.8z"/>
	<path class="st4" d="M85,45.4c-2.5,0-4.3,0.7-4.3,0.7l-0.5,3.1c0,0,1.6-0.7,4-0.7c1.3,0,2.3,0.2,2.3,1.3c0,0.7-0.2,0.9-0.2,0.9
		s-1.1,0-1.6,0c-3.1,0-6.5,1.3-6.5,5.4c0,3.2,2.2,4,3.4,4c2.5,0,3.6-1.6,3.8-1.6l-0.2,1.4h3.2l1.4-9.9C90.1,45.6,86.3,45.4,85,45.4z
		 M85.9,53.5c0,0.5-0.4,3.4-2.5,3.4c-1.1,0-1.4-0.9-1.4-1.4c0-0.9,0.5-2.2,3.2-2.2C85.7,53.5,85.7,53.5,85.9,53.5z"/>
	<path class="st4" d="M92.9,59.8c1.1-5.9,1.3-10.8,3.8-9.9c0.4-2.3,0.9-3.2,1.3-4.1c0,0-0.2,0-0.7,0c-1.6,0-2.9,2.2-2.9,2.2l0.4-2
		h-3.4L89,60h4V59.8z"/>
</g>
</svg>
