<svg width="51" height="18" viewBox="0 0 51 18" fill="none" xmlns="http://www.w3.org/2000/svg">
<path d="M17.3048 1.23043C17.1857 1.19074 13.0082 6.05641e-07 8.68182 6.05641e-07C4.35547 6.05641e-07 0.0886544 1.23043 0.0886544 1.23043C-1.0227 14.7056 8.68182 18 8.68182 18C8.68182 18 18.426 14.6858 17.3048 1.23043ZM8.68182 17.1466C8.68182 17.1466 -0.0998793 14.1599 0.902326 1.96472C0.902326 1.96472 4.77223 0.853362 8.68182 0.853362C12.5914 0.853362 16.372 1.92503 16.4911 1.96472C17.5131 14.1499 8.68182 17.1466 8.68182 17.1466Z" transform="translate(0.699219 0.000488281)" fill="#858585"/>
<path d="M6.5866 12.9294C6.5866 12.9294 -0.776138 10.2304 0.0673019 3.0282e-07C0.0673019 3.0282e-07 3.31206 0.257993 6.5866 0.257993C9.87105 0.257993 13.0364 0.00992313 13.1357 3.0282e-07C13.9791 10.2205 6.5866 12.9294 6.5866 12.9294Z" transform="translate(2.80469 2.69946)" fill="white"/>
<path d="M1.5141e-07 6.84675L1.05182 6.05641e-07H2.79824L4.94157 6.84675H3.10584L2.18302 3.29438L1.64719 6.84675H1.5141e-07Z" transform="translate(5.44141 4.36658)" fill="#141414"/>
<path d="M1.02205 6.05641e-07H2.7387L3.76075 6.84675H2.10364L1.50827 3.29438L0.9129 6.07277L-3.02821e-07 3.29438L1.02205 6.05641e-07Z" transform="translate(9.63867 4.36658)" fill="#141414"/>
<path d="M4.61411 6.14223H3.25469L1.9548 2.83793H1.94487L1.46858 6.14223H3.0282e-07L0.962514 0H2.41125L4.61411 6.14223ZM3.67144 2.99669L4.7828 0H6.25138L7.10474 6.14223H5.62624L5.20948 2.83793H5.19956L4.3462 4.81257L3.67144 2.99669Z" transform="translate(19.7715 1.52856)" fill="white"/>
<path d="M1.85557 5.07056L1.48842 6.14223H6.05641e-07L2.07387 0H3.60198L5.62624 6.14223H4.13782L3.79052 5.07056H1.85557ZM2.82801 1.89526H2.81808L2.24256 3.85006H3.40353L2.82801 1.89526Z" transform="translate(30.6172 1.52856)" fill="white"/>
<path d="M4.24697 2.48071H1.36935C1.36935 3.086 1.66703 3.41345 2.22271 3.41345C2.51047 3.41345 2.72878 3.3043 2.87762 3.02646H4.18743C4.07828 3.51268 3.81036 3.8699 3.46307 4.10805C3.10584 4.3462 2.67916 4.45535 2.23264 4.45535C0.952592 4.45535 6.05641e-07 3.67144 6.05641e-07 2.23264C6.05641e-07 0.84344 0.883132 3.02821e-07 2.13341 3.02821e-07C3.47299 3.02821e-07 4.24697 0.893054 4.24697 2.32194V2.48071ZM2.98677 1.62734C2.91731 1.23043 2.57993 0.962514 2.21279 0.962514C1.81588 0.962514 1.48842 1.19074 1.39912 1.62734H2.98677Z" transform="translate(39.4492 3.34448)" fill="white"/>
<path d="M4.24697 2.48071H1.36935C1.36935 3.086 1.66703 3.41345 2.22271 3.41345C2.5204 3.41345 2.72878 3.3043 2.87762 3.02646H4.18743C4.07828 3.51268 3.81036 3.8699 3.46307 4.10805C3.10584 4.3462 2.67916 4.45535 2.23264 4.45535C0.952592 4.45535 1.21128e-06 3.67144 1.21128e-06 2.23264C1.21128e-06 0.84344 0.883132 3.02821e-07 2.13341 3.02821e-07C3.47299 3.02821e-07 4.24697 0.893054 4.24697 2.32194V2.48071ZM2.97685 1.62734C2.90739 1.23043 2.57001 0.962514 2.20287 0.962514C1.80595 0.962514 1.4785 1.19074 1.3892 1.62734H2.97685Z" transform="translate(44.1719 3.34448)" fill="white"/>
<path d="M-6.05641e-07 1.05182C-6.05641e-07 0.466373 0.466373 -6.05641e-07 1.05182 -6.05641e-07C1.63727 -6.05641e-07 2.10364 0.466373 2.10364 1.05182C2.10364 1.63727 1.63727 2.10364 1.05182 2.10364C0.45645 2.09372 -6.05641e-07 1.63727 -6.05641e-07 1.05182ZM0.168689 1.05182C0.168689 1.54796 0.565601 1.92503 1.05182 1.92503C1.52811 1.92503 1.93495 1.53804 1.93495 1.05182C1.93495 0.555678 1.53804 0.178611 1.05182 0.178611C0.565601 0.178611 0.168689 0.555678 0.168689 1.05182ZM1.52811 1.64719H1.32966L1.03197 1.10143H0.813672V1.64719H0.644983V0.466373H1.14112C1.3495 0.466373 1.54796 0.525909 1.54796 0.77398C1.54796 1.0022 1.38919 1.09151 1.23043 1.09151L1.52811 1.64719ZM0.813672 0.644983V0.942668H0.992282C1.15105 0.942668 1.36935 0.972437 1.36935 0.813672C1.36935 0.66483 1.24035 0.654906 1.10143 0.654906H0.813672V0.644983Z" transform="translate(48.6074 1.61792)" fill="white"/>
<path d="M0.793826 3.15546H6.05641e-07V2.15325H0.823594V1.66703C0.823594 0.426681 1.36935 6.05641e-07 2.45094 6.05641e-07C2.7387 6.05641e-07 2.96692 0.0496135 3.14553 0.079382L3.06615 1.07166C2.957 1.03197 2.83793 1.01213 2.63947 1.01213C2.29217 1.01213 2.16317 1.27012 2.16317 1.67696V2.16317H3.12569V3.16538H2.16317V6.32084H0.81367V3.15546H0.793826Z" transform="translate(35.9746 1.34009)" fill="white"/>
<path d="M3.05623 0.962513C2.61962 0.793825 2.38148 0.724366 1.93495 0.724366C1.45866 0.724366 0.893055 0.893053 0.893055 1.49835C0.893055 2.6097 3.45314 2.35171 3.45314 4.25689C3.45314 5.48732 2.47078 5.97354 1.28004 5.97354C0.863285 5.97354 0.45645 5.85447 0.0595366 5.73539L0.148843 4.96141C0.436605 5.08049 0.952591 5.23925 1.3892 5.23925C1.87541 5.23925 2.56009 4.97133 2.56009 4.29658C2.56009 3.00662 6.05641e-07 3.36384 6.05641e-07 1.56781C6.05641e-07 0.545755 0.833516 1.21128e-06 1.9151 1.21128e-06C2.31202 1.21128e-06 2.77839 0.0694586 3.18523 0.208378L3.05623 0.962513Z" transform="translate(19.8008 9.6344)" fill="white"/>
<path d="M0 6.05641e-07H3.33407V0.724365H0.853363V2.41125H3.11577V3.13561H0.853363V5.04079H3.33407V5.76516H0V6.05641e-07Z" transform="translate(24.4551 9.72485)" fill="white"/>
<path d="M4.4355 1.05182C4.05843 0.833518 3.64168 0.724365 3.20507 0.724365C1.83572 0.724365 0.912899 1.68688 0.912899 2.98677C0.912899 4.3462 1.92503 5.24917 3.15546 5.24917C3.58214 5.24917 4.15766 5.14002 4.45535 4.97134L4.50496 5.77508C4.04851 5.95369 3.49283 5.98346 3.14553 5.98346C1.2602 5.98346 1.21128e-06 4.81257 1.21128e-06 2.96692C1.21128e-06 1.19074 1.32966 6.05641e-07 3.14553 6.05641e-07C3.60198 6.05641e-07 4.05843 0.0694604 4.48512 0.248071L4.4355 1.05182Z" transform="translate(28.4922 9.62561)" fill="white"/>
<path d="M4.62403 3.38368C4.62403 5.0011 3.7806 5.87431 2.31202 5.87431C0.84344 5.87431 1.21128e-06 5.0011 1.21128e-06 3.38368V6.05641e-07H0.853361V3.27453C0.853361 4.38589 1.21058 5.14995 2.31202 5.14995C3.41345 5.14995 3.77067 4.38589 3.77067 3.27453V6.05641e-07H4.62403V3.38368Z" transform="translate(33.7031 9.72485)" fill="white"/>
<path d="M0 6.05641e-07H1.45866C2.63947 6.05641e-07 3.77067 0.17861 3.77067 1.56781C3.77067 2.27233 3.23484 2.76847 2.54024 2.88754V2.90739C2.80816 3.00661 2.93716 3.12569 3.11577 3.48291L4.24697 5.78501H3.27453L2.36163 3.7806C2.09371 3.215 1.81588 3.21499 1.35943 3.21499H0.84344V5.78501H0V6.05641e-07ZM0.853363 2.48071H1.57773C2.3914 2.48071 2.8677 2.13341 2.8677 1.57773C2.8677 1.05182 2.46086 0.724365 1.67696 0.724365H0.853363V2.48071Z" transform="translate(39.6855 9.72485)" fill="white"/>
<path d="M0 6.05641e-07H3.33407V0.724365H0.853363V2.41125H3.11577V3.13561H0.853363V5.04079H3.33407V5.76516H0V6.05641e-07Z" transform="translate(44.8965 9.72485)" fill="white"/>
<path d="M3.24476 1.28004C2.99669 1.12128 2.74862 1.05182 2.42117 1.05182C1.83572 1.05182 1.38919 1.4785 1.38919 2.20287C1.38919 2.8677 1.91511 3.29438 2.50055 3.29438C2.80816 3.29438 3.11577 3.22492 3.34399 3.09592L3.37376 4.16759C3.03638 4.28666 2.62955 4.35612 2.27233 4.35612C0.982358 4.35612 -6.05641e-07 3.55237 -6.05641e-07 2.18302C-6.05641e-07 0.803749 0.982358 6.05641e-07 2.27233 6.05641e-07C2.67916 6.05641e-07 3.03638 0.0694592 3.34399 0.228224L3.24476 1.28004Z" transform="translate(27.0234 3.52307)" fill="white"/>
</svg>
