<svg width="50" height="15" viewBox="0 0 50 15" fill="none" xmlns="http://www.w3.org/2000/svg">
<path d="M5.92547 -4.26488e-07H2.12422C1.90062 -4.26488e-07 1.67702 0.223602 1.56522 0.447204L1.70595e-06 10.2857C1.70595e-06 10.5093 0.111802 10.6211 0.335405 10.6211H2.34783C2.57143 10.6211 2.68323 10.5093 2.68323 10.2857L3.13044 7.49068C3.13044 7.26708 3.35404 7.04348 3.68944 7.04348H4.91925C7.49068 7.04348 8.9441 5.81366 9.2795 3.35404C9.50311 2.34783 9.2795 1.45342 8.8323 0.894411C8.16149 0.335405 7.15528 -4.26488e-07 5.92547 -4.26488e-07ZM6.37267 3.68944C6.14907 5.03106 5.14286 5.03106 4.13664 5.03106H3.46584L3.91305 2.45963C3.91305 2.34783 4.02485 2.23602 4.24845 2.23602H4.47205C5.14286 2.23602 5.81367 2.23602 6.14907 2.68323C6.37267 2.79503 6.37267 3.13044 6.37267 3.68944Z" transform="translate(27.6211 0.896118)" fill="#858585"/>
<path d="M5.92547 -4.26488e-07H2.12422C1.90062 -4.26488e-07 1.67702 0.223602 1.56522 0.447204L-4.26488e-07 10.2857C-4.26488e-07 10.5093 0.111802 10.6211 0.335405 10.6211H2.12422C2.34783 10.6211 2.57143 10.3975 2.68323 10.1739L3.13044 7.49068C3.13044 7.26708 3.35404 7.04348 3.68944 7.04348H4.91925C7.49068 7.04348 8.9441 5.81366 9.2795 3.35404C9.50311 2.34783 9.2795 1.45342 8.8323 0.894411C8.16149 0.335405 7.26708 -4.26488e-07 5.92547 -4.26488e-07ZM6.37267 3.68944C6.14907 5.03106 5.14286 5.03106 4.13665 5.03106H3.57764L4.02484 2.45963C4.02484 2.34783 4.13665 2.23602 4.36025 2.23602H4.58385C5.25466 2.23602 5.92547 2.23602 6.26087 2.68323C6.37267 2.79503 6.48447 3.13044 6.37267 3.68944Z" transform="translate(0.230469 0.896118)" fill="white"/>
<path d="M8.67874 0.223603H6.88992C6.77812 0.223603 6.55451 0.335403 6.55451 0.447204L6.44271 1.00621L6.33091 0.782609C5.88371 0.223603 5.1011 -4.26488e-07 4.20669 -4.26488e-07C2.19426 -4.26488e-07 0.405442 1.56522 0.0700384 3.68944C-0.153564 4.80745 0.18184 5.81367 0.740846 6.48447C1.29985 7.15528 2.08246 7.37888 3.08867 7.37888C4.76569 7.37888 5.6601 6.37267 5.6601 6.37267L5.5483 6.93168C5.5483 7.15528 5.6601 7.26708 5.8837 7.26708H7.56072C7.78433 7.26708 8.00793 7.04348 8.11973 6.81988L9.12594 0.559006C9.01414 0.447205 8.79054 0.223603 8.67874 0.223603ZM6.10731 3.80124C5.88371 4.80745 5.1011 5.59006 3.98308 5.59006C3.42408 5.59006 2.97687 5.36646 2.75327 5.14286C2.52967 4.80745 2.41787 4.36025 2.41787 3.80124C2.52967 2.79503 3.42408 2.01242 4.43029 2.01242C4.9893 2.01242 5.3247 2.23602 5.6601 2.45963C5.99551 2.79503 6.10731 3.35404 6.10731 3.80124Z" transform="translate(8.99219 4.25012)" fill="white"/>
<path d="M8.67874 0.223603H6.88991C6.77811 0.223603 6.55451 0.335403 6.55451 0.447204L6.44271 1.00621L6.33091 0.782609C5.8837 0.223603 5.1011 -4.26488e-07 4.20669 -4.26488e-07C2.19426 -4.26488e-07 0.405444 1.56522 0.0700401 3.68944C-0.153562 4.80745 0.18184 5.81367 0.740846 6.48447C1.29985 7.15528 2.08246 7.37888 3.08867 7.37888C4.76569 7.37888 5.6601 6.37267 5.6601 6.37267L5.5483 6.93168C5.5483 7.15528 5.6601 7.26708 5.88371 7.26708H7.56073C7.78433 7.26708 8.00793 7.04348 8.11973 6.81988L9.12594 0.559006C9.01414 0.447205 8.90234 0.223603 8.67874 0.223603ZM6.10731 3.80124C5.8837 4.80745 5.1011 5.59006 3.98308 5.59006C3.42408 5.59006 2.97687 5.36646 2.75327 5.14286C2.52966 4.80745 2.41786 4.36025 2.41786 3.80124C2.52967 2.79503 3.42408 2.01242 4.43029 2.01242C4.98929 2.01242 5.3247 2.23602 5.6601 2.45963C6.10731 2.79503 6.21911 3.35404 6.10731 3.80124Z" transform="translate(36.2715 4.25012)" fill="#858585"/>
<path d="M8.6087 4.26488e-07H6.70807C6.48447 4.26488e-07 6.37267 0.1118 6.26087 0.223602L3.80124 4.02485L2.68323 0.447205C2.57143 0.223603 2.45963 0.111802 2.12423 0.111802H0.335403C0.1118 0.111802 0 0.335404 0 0.559007L2.01242 6.48447L0.1118 9.1677C-1.70762e-06 9.3913 0.1118 9.72671 0.335403 9.72671H2.12423C2.34783 9.72671 2.45963 9.61491 2.57143 9.50311L8.7205 0.670808C9.0559 0.335405 8.8323 4.26488e-07 8.6087 4.26488e-07Z" transform="translate(18.7891 4.47375)" fill="white"/>
<path d="M1.56522 0.267464L1.70595e-06 10.3296C1.70595e-06 10.5532 0.111802 10.665 0.335405 10.665H1.90062C2.12422 10.665 2.34782 10.4414 2.45963 10.2178L4.02485 0.379263C4.02485 0.155661 3.91304 0.0438602 3.68944 0.0438602H1.90062C1.78882 -0.0679411 1.67702 0.043861 1.56522 0.267464Z" transform="translate(45.5098 0.964111)" fill="#858585"/>
</svg>
