<svg width="35" height="18" viewBox="0 0 35 18" fill="none" xmlns="http://www.w3.org/2000/svg">
<path d="M7.44708 0.93865L13.9693 2.10506V11.3397C13.3896 12.5199 12.5268 13.6173 11.388 14.5974C10.2699 15.5637 8.94478 16.3712 7.44018 17.0061C5.93558 16.3712 4.61043 15.5637 3.49233 14.5974C2.36043 13.6173 1.4908 12.5199 0.911043 11.3397V2.10506L7.44708 0.93865ZM7.44708 2.10627e-07L1.31642e-08 1.33206V11.5468C0.634969 12.9202 1.60813 14.1833 2.89877 15.2945C4.17561 16.3988 5.70782 17.3098 7.44708 18C9.18635 17.3098 10.7186 16.3988 11.9954 15.2945C13.286 14.1764 14.2592 12.9202 14.8942 11.5468V1.33206L7.44708 2.10627e-07Z" transform="translate(0.599609 0.000488281)" fill="#E5E5E5"/>
<path d="M1.92561 -4.21255e-07H3.81672L5.75613 8.79294H4.1204L3.7408 6.7638H2.05675L1.66334 8.79294H-4.21255e-07L1.92561 -4.21255e-07ZM3.54064 5.74233L2.88497 2.04985L2.2293 5.74233H3.54064Z" transform="translate(17.9297 1.69836)" fill="white"/>
<path d="M-8.4251e-07 -4.21255e-07H4.06519V1.1319H1.75997V3.65797H3.57515V4.77607H1.75997V7.69555H4.09279V8.79294H-8.4251e-07V-4.21255e-07Z" transform="translate(24.6523 1.69836)" fill="white"/>
<path d="M0.710889 8.33052C0.276073 7.8819 0.041411 7.21242 0 6.32209L1.51841 6.05291C1.53911 6.61196 1.64264 7.03298 1.80828 7.32976C1.98083 7.61963 2.25 7.77147 2.6158 7.77147C2.88497 7.77147 3.08512 7.69555 3.22316 7.55061C3.3543 7.40567 3.42331 7.19862 3.42331 6.95015C3.42331 6.60506 3.34049 6.30828 3.16794 6.06672C2.9954 5.82515 2.72623 5.55598 2.36043 5.26611L1.1388 4.29985C0.766104 4.00997 0.483128 3.69939 0.296778 3.3681C0.110429 3.03681 0.0138045 2.6365 0.0138045 2.17408C0.0138045 1.4839 0.234662 0.952454 0.67638 0.572853C1.1181 0.193252 1.73236 0 2.51227 0C3.34739 0 3.94785 0.213957 4.31365 0.648773C4.67945 1.07669 4.8865 1.66334 4.94172 2.38804L3.42331 2.6296C3.40261 2.15337 3.32669 1.79448 3.20245 1.54601C3.07822 1.30445 2.83666 1.18022 2.47776 1.18022C2.22239 1.18022 2.02224 1.25614 1.8773 1.41488C1.73236 1.57362 1.66334 1.76687 1.66334 2.00844C1.66334 2.29141 1.72546 2.52607 1.84969 2.71933C1.97393 2.91258 2.17408 3.11273 2.45706 3.33359L3.66488 4.29985C4.1204 4.65184 4.47239 5.03144 4.72776 5.43865C4.98313 5.84586 5.10736 6.31518 5.10736 6.84663C5.10736 7.26764 5.00384 7.64034 4.80368 7.96472C4.60353 8.28911 4.31365 8.54448 3.94785 8.73083C3.58206 8.91718 3.16104 9.0069 2.67791 9.0069C1.80138 9.0069 1.1457 8.77914 0.710889 8.33052Z" transform="translate(29.5312 1.60168)" fill="white"/>
<path d="M-2.10627e-07 4.20322L1.28374 2.40184C1.30445 2.36733 1.32515 2.34663 1.33896 2.31902C1.35276 2.29831 1.37347 2.27761 1.38727 2.2569C1.53911 2.03604 1.65644 1.85659 1.72546 1.71166C1.80138 1.56672 1.83589 1.40107 1.83589 1.22163C1.83589 0.855829 1.69095 0.669479 1.40798 0.669479C1.21472 0.669479 1.07669 0.738498 1.00077 0.876535C0.924847 1.01457 0.883436 1.19402 0.883436 1.42868V1.62883H0.0207055V1.42178C0.0207055 0.980062 0.131134 0.628068 0.351993 0.379601C0.572852 0.131135 0.917944 0 1.39417 0C1.82899 0 2.16718 0.11043 2.39494 0.324387C2.6227 0.538344 2.73313 0.842024 2.73313 1.23543C2.73313 1.47699 2.68482 1.69095 2.59509 1.8773C2.50537 2.06365 2.36043 2.29141 2.16718 2.56749L2.09126 2.67101L1.01457 4.1342H2.59509V4.78298H-2.10627e-07V4.20322Z" transform="translate(17.916 12.1615)" fill="white"/>
<path d="M0.282975 4.43788C0.0897239 4.19632 -4.21255e-07 3.84433 -4.21255e-07 3.375H0.869632C0.869632 3.64417 0.904141 3.84433 0.966257 3.98236C1.02837 4.1204 1.15951 4.18942 1.34586 4.18942C1.4908 4.18942 1.59433 4.14801 1.66334 4.06519C1.73236 3.98236 1.77377 3.87193 1.79448 3.72699C1.81518 3.58206 1.82209 3.3888 1.82209 3.13344C1.82209 2.82285 1.78758 2.59509 1.72546 2.44325C1.66334 2.29831 1.52531 2.22239 1.32515 2.22239C1.20782 2.22239 1.1043 2.2569 1.02147 2.33282C0.938651 2.40874 0.876534 2.50537 0.835123 2.6365H0.069018L0.117332 8.4251e-07H2.45706V0.724694H0.86273L0.814418 1.8635C0.890338 1.78758 0.993864 1.73236 1.1319 1.68405C1.26994 1.64264 1.42178 1.61503 1.58052 1.61503C1.94632 1.61503 2.22239 1.73926 2.40184 1.99463C2.58129 2.25 2.67101 2.6089 2.67101 3.07132C2.67101 3.43022 2.6365 3.7408 2.56058 3.98926C2.48466 4.23773 2.34663 4.43788 2.15337 4.57592C1.95322 4.72086 1.67715 4.78988 1.31825 4.78988C0.814417 4.79678 0.469325 4.67945 0.282975 4.43788Z" transform="translate(21.1387 12.2098)" fill="white"/>
<path d="M0.338191 4.41718C0.11043 4.1342 8.4251e-07 3.7546 8.4251e-07 3.29218V1.63574C8.4251e-07 1.125 0.103528 0.724694 0.303681 0.434817C0.510737 0.144939 0.855827 -4.21255e-07 1.35276 -4.21255e-07C1.80138 -4.21255e-07 2.12577 0.0966266 2.33282 0.29678C2.53988 0.496933 2.65031 0.793712 2.65721 1.18712V1.26304H1.80138C1.80138 1.03528 1.77377 0.876535 1.71166 0.779909C1.64954 0.683283 1.53221 0.63497 1.35966 0.63497C1.18712 0.63497 1.06979 0.710889 0.993865 0.855827C0.924847 1.00077 0.890338 1.25613 0.890338 1.61503V2.17408C0.952454 2.07745 1.04908 2.00843 1.17331 1.96012C1.29755 1.91181 1.44939 1.8842 1.61503 1.8842C2.34663 1.8842 2.71242 2.33972 2.71242 3.24386C2.71242 4.32055 2.2569 4.85889 1.35276 4.85889C0.90414 4.84509 0.565951 4.70705 0.338191 4.41718ZM1.72546 4.00997C1.79448 3.87193 1.82209 3.66488 1.82209 3.3819C1.82209 3.16794 1.81518 3.0023 1.80138 2.88497C1.78758 2.76764 1.74617 2.67101 1.67715 2.59509C1.60813 2.51917 1.5046 2.48466 1.35966 2.48466C1.25613 2.48466 1.16641 2.51227 1.07669 2.56058C0.993864 2.6089 0.931748 2.67101 0.883436 2.73313V3.47163C0.883436 3.69249 0.917945 3.87193 0.993865 4.00997C1.06979 4.14801 1.18712 4.21702 1.35966 4.21702C1.54601 4.22393 1.66334 4.14801 1.72546 4.00997Z" transform="translate(24.3691 12.1547)" fill="white"/>
<path d="M-8.4251e-07 4.21255e-07H1.29064C1.78068 4.21255e-07 2.16028 0.0897244 2.42255 0.276074C2.68482 0.462424 2.81595 0.773007 2.81595 1.21472C2.81595 1.5046 2.75383 1.72546 2.6227 1.8911C2.49156 2.04985 2.30522 2.15337 2.06365 2.18788C2.66411 2.29141 2.96779 2.68482 2.96779 3.3543C2.96779 3.80982 2.84356 4.15491 2.60199 4.38267C2.36043 4.61733 1.99463 4.72776 1.5115 4.72776H0.00690142V4.21255e-07H-8.4251e-07ZM1.27684 1.93942C1.55291 1.93942 1.73926 1.8842 1.84279 1.77377C1.94632 1.66334 1.99463 1.4839 1.99463 1.23543C1.99463 0.993865 1.93252 0.82822 1.80138 0.745398C1.67025 0.655674 1.45629 0.614264 1.14571 0.614264H0.952455V1.94632H1.27684V1.93942ZM1.31825 4.1273C1.59432 4.1273 1.78758 4.06518 1.89801 3.94785C2.00844 3.83052 2.05675 3.63037 2.05675 3.3543C2.05675 3.07132 1.99463 2.86426 1.8773 2.73313C1.75997 2.60199 1.55982 2.53988 1.28374 2.53988H0.952455V4.1342H1.31825V4.1273Z" transform="translate(27.7578 12.2029)" fill="white"/>
<path d="M-8.4251e-07 -4.21255e-07H0.876534V0.662577H-8.4251e-07V-4.21255e-07ZM-8.4251e-07 1.20092H0.876534V4.57592H-8.4251e-07V1.20092Z" transform="translate(31.3125 12.3617)" fill="white"/>
<path d="M0.579756 4.20322C0.441719 4.05828 0.3727 3.83742 0.3727 3.54064V1.52531H-8.4251e-07V1.00767H0.3727V8.4251e-07H1.25614V1.00767H1.81518V1.52531H1.25614V3.47163C1.25614 3.58206 1.28374 3.66488 1.33896 3.72009C1.39417 3.76841 1.47699 3.79601 1.59433 3.79601C1.70475 3.79601 1.79448 3.78911 1.8635 3.77531V4.38957C1.69095 4.41718 1.5046 4.43098 1.30445 4.43098C0.959357 4.42408 0.717792 4.34816 0.579756 4.20322Z" transform="translate(32.6582 12.5549)" fill="white"/>
<path d="M3.29218 6.88113L-1.05314e-07 3.29218L1.19402 2.39494L3.28528 3.89264L7.77147 2.10627e-07L8.96549 0.60046L3.29218 6.88113Z" transform="translate(3.55273 5.14233)" fill="white"/>
</svg>
