<?xml version="1.0" encoding="utf-8"?>
<!-- Generator: Adobe Illustrator 22.0.1, SVG Export Plug-In . SVG Version: 6.00 Build 0)  -->
<svg version="1.1" id="Layer_1" xmlns="http://www.w3.org/2000/svg" xmlns:xlink="http://www.w3.org/1999/xlink" x="0px" y="0px"
	 viewBox="0 0 122.5 100" style="enable-background:new 0 0 122.5 100;" xml:space="preserve">
<style type="text/css">
	.st0{fill:#DDDDDD;}
	.st1{fill:#141414;}
	.st2{fill:#919191;}
	.st3{fill:#858585;}
	.st4{fill:#FFFFFF;}
	.st5{fill:#333333;}
</style>
<g>
	<path class="st0" d="M27,18.7l23,4.1v32.6c-2,4.2-5.1,8-9.1,11.5c-3.9,3.4-8.6,6.3-13.9,8.5c-5.3-2.2-10-5.1-13.9-8.5
		C9,63.4,6,59.6,3.9,55.4V22.9L27,18.7 M27,15.4L0.7,20.1v36c2.2,4.8,5.7,9.3,10.2,13.2c4.5,3.9,9.9,7.1,16,9.5
		c6.1-2.4,11.5-5.6,16-9.5c4.5-3.9,8-8.4,10.2-13.2v-36L27,15.4L27,15.4z"/>
</g>
<path class="st1" d="M70.6,21.4h6.7l6.8,31h-5.8L77,45.3H71l-1.4,7.2h-5.9L70.6,21.4z M76.3,41.7l-2.3-13l-2.3,13H76.3z"/>
<path class="st1" d="M85.5,21.4h14.3v4h-8.1v8.9h6.4v3.9h-6.4v10.3h8.2v3.9H85.5V21.4z"/>
<path class="st1" d="M105.2,50.4c-1.5-1.6-2.4-3.9-2.5-7.1l5.4-0.9c0.1,2,0.4,3.5,1,4.5c0.6,1,1.6,1.6,2.8,1.6
	c0.9,0,1.7-0.3,2.1-0.8c0.5-0.5,0.7-1.2,0.7-2.1c0-1.2-0.3-2.3-0.9-3.1c-0.6-0.9-1.6-1.8-2.8-2.8l-4.3-3.4c-1.3-1-2.3-2.1-3-3.3
	c-0.7-1.2-1-2.6-1-4.2c0-2.4,0.8-4.3,2.3-5.6c1.6-1.3,3.7-2,6.5-2c2.9,0,5.1,0.8,6.4,2.3c1.3,1.5,2,3.6,2.2,6.1l-5.4,0.9
	c-0.1-1.7-0.3-2.9-0.8-3.8c-0.4-0.9-1.3-1.3-2.6-1.3c-0.9,0-1.6,0.3-2.1,0.8c-0.5,0.6-0.8,1.2-0.8,2.1c0,1,0.2,1.8,0.7,2.5
	c0.4,0.7,1.1,1.4,2.1,2.2l4.3,3.4c1.6,1.2,2.8,2.6,3.7,4c0.9,1.4,1.3,3.1,1.3,5c0,1.5-0.4,2.8-1.1,3.9c-0.7,1.1-1.7,2-3,2.7
	s-2.8,1-4.5,1C109,52.8,106.7,52,105.2,50.4z"/>
<path class="st1" d="M61.7,73.1l4.5-6.4c0.1-0.1,0.1-0.2,0.2-0.3c0-0.1,0.1-0.1,0.2-0.2c0.5-0.8,0.9-1.4,1.2-1.9
	c0.3-0.5,0.4-1.1,0.4-1.7c0-1.3-0.5-1.9-1.5-1.9c-0.7,0-1.2,0.2-1.4,0.7c-0.3,0.5-0.4,1.1-0.4,1.9V64h-3v-0.7c0-1.6,0.4-2.8,1.2-3.7
	c0.8-0.9,2-1.3,3.7-1.3c1.5,0,2.7,0.4,3.5,1.1c0.8,0.8,1.2,1.8,1.2,3.2c0,0.9-0.2,1.6-0.5,2.3c-0.3,0.7-0.8,1.5-1.5,2.4l-0.3,0.4
	l-3.8,5.2h5.6v2.3h-9.1L61.7,73.1L61.7,73.1z"/>
<path class="st1" d="M74.1,74.1c-0.7-0.9-1-2.1-1-3.7h3.1c0,0.9,0.1,1.7,0.3,2.1c0.2,0.5,0.7,0.7,1.3,0.7c0.5,0,0.9-0.1,1.1-0.4
	c0.2-0.3,0.4-0.7,0.5-1.2c0.1-0.5,0.1-1.2,0.1-2.1c0-1.1-0.1-1.9-0.3-2.4c-0.2-0.5-0.7-0.8-1.4-0.8c-0.4,0-0.8,0.1-1.1,0.4
	c-0.3,0.3-0.5,0.6-0.7,1.1h-2.7l0.2-9.3h8.2V61h-5.6L76,65c0.3-0.3,0.6-0.5,1.1-0.6c0.5-0.1,1-0.2,1.6-0.2c1.3,0,2.3,0.4,2.9,1.3
	s0.9,2.2,0.9,3.8c0,1.3-0.1,2.4-0.4,3.2c-0.3,0.9-0.8,1.6-1.4,2.1c-0.7,0.5-1.7,0.8-2.9,0.8C76,75.4,74.8,75,74.1,74.1z"/>
<path class="st1" d="M85.7,73.9c-0.8-1-1.2-2.3-1.2-4V64c0-1.8,0.4-3.2,1.1-4.2c0.7-1,1.9-1.5,3.7-1.5c1.6,0,2.7,0.3,3.5,1
	c0.7,0.7,1.1,1.8,1.1,3.1v0.3h-3c0-0.8-0.1-1.4-0.3-1.7c-0.2-0.3-0.6-0.5-1.2-0.5c-0.6,0-1,0.3-1.3,0.8c-0.2,0.5-0.4,1.4-0.4,2.7v2
	c0.2-0.3,0.6-0.6,1-0.8c0.4-0.2,1-0.3,1.6-0.3c2.6,0,3.9,1.6,3.9,4.8c0,3.8-1.6,5.7-4.8,5.7C87.7,75.4,86.5,74.9,85.7,73.9z
	 M90.6,72.4c0.2-0.5,0.3-1.2,0.3-2.2c0-0.8,0-1.3-0.1-1.8c0-0.4-0.2-0.8-0.4-1c-0.2-0.3-0.6-0.4-1.1-0.4c-0.4,0-0.7,0.1-1,0.3
	c-0.3,0.2-0.5,0.4-0.7,0.6v2.6c0,0.8,0.1,1.4,0.4,1.9s0.7,0.7,1.3,0.7C89.9,73.2,90.4,72.9,90.6,72.4z"/>
<path class="st1" d="M96.4,58.5h4.5c1.7,0,3.1,0.3,4,1c0.9,0.7,1.4,1.8,1.4,3.3c0,1-0.2,1.8-0.7,2.4c-0.5,0.6-1.1,0.9-2,1
	c2.1,0.4,3.2,1.8,3.2,4.1c0,1.6-0.4,2.8-1.3,3.6c-0.9,0.8-2.1,1.2-3.8,1.2h-5.3L96.4,58.5L96.4,58.5z M100.9,65.3c1,0,1.6-0.2,2-0.6
	c0.4-0.4,0.5-1,0.5-1.9c0-0.9-0.2-1.4-0.7-1.7c-0.5-0.3-1.2-0.5-2.3-0.5h-0.7v4.7L100.9,65.3L100.9,65.3z M101.1,73
	c1,0,1.7-0.2,2-0.6c0.4-0.4,0.6-1.1,0.6-2.1c0-1-0.2-1.7-0.6-2.2c-0.4-0.5-1.1-0.7-2.1-0.7h-1.2V73L101.1,73L101.1,73z"/>
<path class="st1" d="M109,59h3.1v2.3H109V59z M109,63.2h3.1v11.9H109V63.2z"/>
<path class="st1" d="M115.8,74.5c-0.5-0.5-0.7-1.3-0.7-2.3v-7.1h-1.3v-1.8h1.3v-3.6h3.1v3.6h2v1.8h-2v6.9c0,0.4,0.1,0.7,0.3,0.9
	c0.2,0.2,0.5,0.3,0.9,0.3c0.4,0,0.7,0,0.9-0.1v2.2c-0.6,0.1-1.3,0.1-2,0.1C117.1,75.3,116.2,75,115.8,74.5z"/>
<g>
	<path class="st1" d="M22.7,57.8L11.1,45.2l4.2-3.2l7.4,5.3l15.8-13.7l4.2,2.1L22.7,57.8z"/>
</g>
</svg>
