<?xml version="1.0" encoding="utf-8"?>
<!-- Generator: Adobe Illustrator 22.0.1, SVG Export Plug-In . SVG Version: 6.00 Build 0)  -->
<svg version="1.1" id="Layer_1" xmlns="http://www.w3.org/2000/svg" xmlns:xlink="http://www.w3.org/1999/xlink" x="0px" y="0px"
	 viewBox="0 0 50 50" style="enable-background:new 0 0 50 50;" xml:space="preserve">
<g>
	<path d="M39,12.5H23c-0.6,0-1,0.4-1,1c0,0.6,0.4,1,1,1h15v7H25c-8.3,0-15,6.7-15,15c0,0.3,0,0.7,0.1,1H11h1.1H39c0.6,0,1-0.4,1-1
		v-13v-2v-8C40,12.9,39.6,12.5,39,12.5z M38,35.5H12.1c0.5-6.7,6.1-12,12.9-12h13V35.5z"/>
	<circle cx="25" cy="30" r="2"/>
</g>
</svg>
