<?xml version="1.0" encoding="utf-8"?>
<!-- Generator: Adobe Illustrator 22.0.1, SVG Export Plug-In . SVG Version: 6.00 Build 0)  -->
<svg version="1.1" id="Layer_1" xmlns="http://www.w3.org/2000/svg" xmlns:xlink="http://www.w3.org/1999/xlink" x="0px" y="0px"
	 viewBox="0 0 200 100" style="enable-background:new 0 0 200 100;" xml:space="preserve">
<style type="text/css">
	.st0{fill:#DDDDDD;}
	.st1{fill:#141414;}
	.st2{fill:#919191;}
	.st3{fill:#858585;}
	.st4{fill:#FFFFFF;}
	.st5{fill:#333333;}
</style>
<path class="st3" d="M135.1,28h-15.4c-0.9,0-1.8,0.9-2.3,1.8l-6.3,39.9c0,0.9,0.5,1.4,1.4,1.4h8.2c0.9,0,1.4-0.5,1.4-1.4l1.8-11.3
	c0-0.9,0.9-1.8,2.3-1.8h5c10.4,0,16.3-5,17.7-15c0.9-4.1,0-7.7-1.8-10C144.2,29.4,140.1,28,135.1,28 M137,43c-0.9,5.4-5,5.4-9.1,5.4
	h-2.7L127,38c0-0.5,0.5-0.9,1.4-0.9h0.9c2.7,0,5.4,0,6.8,1.8C137,39.4,137,40.7,137,43"/>
<g>
	<path class="st1" d="M24,28H8.6c-0.9,0-1.8,0.9-2.3,1.8L0,69.7c0,0.9,0.5,1.4,1.4,1.4h7.3c0.9,0,1.8-0.9,2.3-1.8l1.8-10.9
		c0-0.9,0.9-1.8,2.3-1.8h5c10.4,0,16.3-5,17.7-15c0.9-4.1,0-7.7-1.8-10C33.1,29.4,29.5,28,24,28 M25.9,43c-0.9,5.4-5,5.4-9.1,5.4
		h-2.3L16.3,38c0-0.5,0.5-0.9,1.4-0.9h0.9c2.7,0,5.4,0,6.8,1.8C25.9,39.4,26.3,40.7,25.9,43"/>
	<path class="st1" d="M70.7,42.5h-7.3c-0.5,0-1.4,0.5-1.4,0.9l-0.5,2.3l-0.5-0.9c-1.8-2.3-5-3.2-8.6-3.2c-8.2,0-15.4,6.3-16.8,15
		c-0.9,4.5,0.5,8.6,2.7,11.3c2.3,2.7,5.4,3.6,9.5,3.6c6.8,0,10.4-4.1,10.4-4.1L58,69.7c0,0.9,0.5,1.4,1.4,1.4h6.8
		c0.9,0,1.8-0.9,2.3-1.8l4.1-25.4C72.1,43.4,71.2,42.5,70.7,42.5 M60.3,57c-0.9,4.1-4.1,7.3-8.6,7.3c-2.3,0-4.1-0.9-5-1.8
		c-0.9-1.4-1.4-3.2-1.4-5.4c0.5-4.1,4.1-7.3,8.2-7.3c2.3,0,3.6,0.9,5,1.8C59.9,53,60.3,55.2,60.3,57"/>
</g>
<path class="st3" d="M181.4,42.5h-7.3c-0.5,0-1.4,0.5-1.4,0.9l-0.5,2.3l-0.5-0.9c-1.8-2.3-5-3.2-8.6-3.2c-8.2,0-15.4,6.3-16.8,15
	c-0.9,4.5,0.5,8.6,2.7,11.3c2.3,2.7,5.4,3.6,9.5,3.6c6.8,0,10.4-4.1,10.4-4.1l-0.5,2.3c0,0.9,0.5,1.4,1.4,1.4h6.8
	c0.9,0,1.8-0.9,2.3-1.8l4.1-25.4C182.8,43.4,182.3,42.5,181.4,42.5 M171,57c-0.9,4.1-4.1,7.3-8.6,7.3c-2.3,0-4.1-0.9-5-1.8
	c-0.9-1.4-1.4-3.2-1.4-5.4c0.5-4.1,4.1-7.3,8.2-7.3c2.3,0,3.6,0.9,5,1.8C171,53,171.4,55.2,171,57"/>
<path class="st1" d="M110.2,42.5h-7.7c-0.9,0-1.4,0.5-1.8,0.9l-10,15.4l-4.5-14.5c-0.5-0.9-0.9-1.4-2.3-1.4h-7.3
	c-0.9,0-1.4,0.9-1.4,1.8l8.2,24l-7.7,10.9c-0.5,0.9,0,2.3,0.9,2.3h7.3c0.9,0,1.4-0.5,1.8-0.9l24.9-35.8
	C112,43.9,111.1,42.5,110.2,42.5"/>
<path class="st3" d="M190,29.4l-6.3,40.8c0,0.9,0.5,1.4,1.4,1.4h6.3c0.9,0,1.8-0.9,2.3-1.8l6.3-39.9c0-0.9-0.5-1.4-1.4-1.4h-7.3
	C190.9,28,190.5,28.5,190,29.4"/>
</svg>
