<svg width="48" height="18" viewBox="0 0 48 18" fill="none" xmlns="http://www.w3.org/2000/svg">
<path d="M7.05458e-08 2.07123H1.6274L0.813699 -2.82183e-07L7.05458e-08 2.07123Z" transform="translate(4.79395 2.82373)" fill="white"/>
<path d="M40.0192 -5.64366e-07V0.887671L39.5753 -5.64366e-07H36.0986V0.887671L35.6548 -5.64366e-07H30.9205C30.1068 -5.64366e-07 29.4411 0.147945 28.8493 0.443835V-5.64366e-07H25.5205V0.443835C25.1507 0.147945 24.7068 -5.64366e-07 24.1151 -5.64366e-07H12.2055L11.3918 1.84931L10.5781 -5.64366e-07H6.80548V0.887671L6.36164 -5.64366e-07H3.18082L1.70137 3.47671L0 7.32329H1.70137H3.7726L4.21644 6.13973H5.25205L5.69589 7.32329H9.9863V6.43562L10.3562 7.32329H12.5014L12.8712 6.43562V7.32329H23.1534V5.4H23.3014C23.4493 5.4 23.4493 5.4 23.4493 5.62192V7.24932H28.7753V6.80548C29.2192 7.0274 29.8849 7.24932 30.7726 7.24932H32.9918L33.4356 6.06575H34.4712L34.9151 7.24932H39.2055V6.13973L39.8712 7.24932H43.3479V-5.64366e-07H40.0192ZM15.0164 6.2137H13.7589V2.14521L11.9836 6.2137H10.874L9.09863 2.14521V6.2137H6.58356L6.06575 5.10411H3.55068L3.10685 6.28767H1.70137L3.92055 1.03562H5.76986L7.8411 5.99178V1.03562H9.83836L11.4658 4.5863L12.9452 1.03562H15.0164V6.2137ZM20.0466 2.14521H17.1616V3.10685H19.9726V4.14247H17.1616V5.17808H20.0466V6.28767H15.9041V1.03562H20.0466V2.14521ZM25.5945 4.29041C25.7425 4.5863 25.8164 4.80822 25.8164 5.25205V6.28767H24.5589V5.62192C24.5589 5.32603 24.5589 4.88219 24.337 4.5863C24.1151 4.36438 23.8932 4.36438 23.4493 4.36438H22.1178V6.28767H20.8603V1.03562H23.6712C24.337 1.03562 24.7808 1.03562 25.1507 1.25753C25.5205 1.47945 25.7425 1.84932 25.7425 2.4411C25.7425 3.2548 25.2247 3.69863 24.8548 3.84658C25.2247 3.92055 25.4466 4.14247 25.5945 4.29041ZM27.8137 6.2137H26.5562V0.961644H27.8137V6.2137ZM42.3863 6.2137H40.611L38.2438 2.29315V6.2137H35.7288L35.2849 5.10411H32.6959L32.2521 6.28767H30.8466C30.2548 6.28767 29.5151 6.13973 29.0712 5.69589C28.6274 5.25206 28.4055 4.66027 28.4055 3.69863C28.4055 2.9589 28.5534 2.21918 29.0712 1.6274C29.4411 1.18356 30.1068 1.03562 30.9205 1.03562H32.1041V2.14521H30.9205C30.4767 2.14521 30.2548 2.21918 29.9589 2.4411C29.737 2.66301 29.589 3.10685 29.589 3.62466C29.589 4.21644 29.663 4.5863 29.9589 4.88219C30.1808 5.10411 30.4767 5.17808 30.8466 5.17808H31.3644L33.0658 1.10959H34.9151L36.9863 6.06575V1.10959H38.8356L40.9808 4.73425V1.10959H42.2384V6.2137H42.3863Z" transform="translate(0.799805 0.900391)" fill="white"/>
<path d="M-5.64366e-07 2.07123H1.70137L0.887671 -2.82183e-07L-5.64366e-07 2.07123Z" transform="translate(33.9395 2.82373)" fill="white"/>
<path d="M1.92329 4.21644V1.12873e-06L5.64366e-07 2.07123L1.92329 4.21644Z" transform="translate(19.4404 11.3306)" fill="white"/>
<path d="M2.82183e-07 -1.12873e-06V0.961645H2.73699V1.99726H2.82183e-07V3.10685H3.03288L4.43836 1.55343L3.10685 -1.12873e-06H2.82183e-07Z" transform="translate(13.4492 11.8484)" fill="white"/>
<path d="M1.55343 -1.12873e-06H0V1.33151H1.6274C2.07123 1.33151 2.36712 1.10959 2.36712 0.665753C2.29315 0.221918 1.99726 -1.12873e-06 1.55343 -1.12873e-06Z" transform="translate(22.6211 11.8484)" fill="white"/>
<path d="M35.9507 3.32877V-5.64366e-07H35.063H32.8438C32.1781 -5.64366e-07 31.6603 0.147946 31.2904 0.443837V-5.64366e-07H27.8877C27.3699 -5.64366e-07 26.7041 0.147946 26.4082 0.443837V-5.64366e-07H20.4164V0.443837C19.9726 0.0739737 19.1589 -5.64366e-07 18.789 -5.64366e-07H14.7945V0.443837C14.4247 0.0739737 13.537 -5.64366e-07 13.0932 -5.64366e-07H8.65479L7.61918 1.10959L6.65753 -5.64366e-07H-2.82183e-07V7.24931H6.50959L7.54521 6.13973L8.50685 7.24931H12.5014V5.54795H13.0192C13.537 5.54795 14.2027 5.54795 14.7205 5.32603V7.32329H18.0493V5.4H18.1973C18.4192 5.4 18.4192 5.4 18.4192 5.62192V7.32329H28.4795C29.1452 7.32329 29.811 7.17534 30.1808 6.87945V7.32329H33.3616C34.0274 7.32329 34.6931 7.24932 35.137 6.95343C35.8767 6.50959 36.3205 5.69589 36.3205 4.73425C36.3205 4.21644 36.1726 3.69863 35.9507 3.32877ZM13.0192 4.51233H11.5397V6.28767H9.1726L7.69315 4.5863L6.13973 6.28767H1.25753V1.03562H6.2137L7.69315 2.73699L9.24658 1.03562H13.1671C14.1288 1.03562 15.2384 1.33151 15.2384 2.73699C15.1644 4.21644 14.1288 4.51233 13.0192 4.51233ZM20.4164 4.21644C20.5644 4.43836 20.6384 4.73425 20.6384 5.17808V6.2137H19.3808V5.54795C19.3808 5.25205 19.3808 4.73425 19.1589 4.51233C19.011 4.29041 18.7151 4.29041 18.2712 4.29041H16.9397V6.2137H15.6822V0.961643H18.4932C19.0849 0.961643 19.6027 0.961645 19.9726 1.18356C20.3425 1.40548 20.6384 1.77534 20.6384 2.36712C20.6384 3.18082 20.1205 3.62466 19.7507 3.7726C20.1205 3.92055 20.3425 4.06849 20.4164 4.21644ZM25.5205 2.07123H22.6356V3.03288H25.4466V4.06849H22.6356V5.10411H25.5205V6.2137H21.3781V0.961643H25.5205V2.07123ZM28.6274 6.2137H26.2603V5.10411H28.6274C28.8493 5.10411 28.9973 5.10411 29.1452 4.95616C29.2192 4.88219 29.2931 4.73425 29.2931 4.5863C29.2931 4.43836 29.2192 4.29041 29.1452 4.21644C29.0712 4.14247 28.9233 4.06849 28.7014 4.06849C27.5178 3.99452 26.1123 4.06849 26.1123 2.44109C26.1123 1.70137 26.5562 0.887671 27.8877 0.887671H30.3288V2.14521H28.0356C27.8137 2.14521 27.6658 2.14521 27.5178 2.21918C27.3699 2.29315 27.3699 2.4411 27.3699 2.58904C27.3699 2.81096 27.5178 2.88493 27.6658 2.9589C27.8137 3.03288 27.9616 3.03288 28.1096 3.03288H28.7753C29.4411 3.03288 29.8849 3.18082 30.1808 3.47671C30.4027 3.69863 30.5507 4.06849 30.5507 4.5863C30.5507 5.69589 29.8849 6.2137 28.6274 6.2137ZM34.989 5.69589C34.6931 5.99178 34.1753 6.2137 33.4356 6.2137H31.0685V5.10411H33.4356C33.6575 5.10411 33.8055 5.10411 33.9534 4.95616C34.0274 4.88219 34.1014 4.73425 34.1014 4.5863C34.1014 4.43836 34.0274 4.29041 33.9534 4.21644C33.8794 4.14247 33.7315 4.06849 33.5096 4.06849C32.326 3.99452 30.9205 4.06849 30.9205 2.44109C30.9205 1.70137 31.3644 0.887671 32.6959 0.887671H35.137V2.14521H32.9178C32.6959 2.14521 32.5479 2.14521 32.4 2.21918C32.2521 2.29315 32.2521 2.4411 32.2521 2.58904C32.2521 2.81096 32.326 2.88493 32.5479 2.9589C32.6959 3.03288 32.8438 3.03288 32.9918 3.03288H33.6575C34.3233 3.03288 34.7671 3.18082 35.063 3.47671C35.137 3.47671 35.137 3.55068 35.137 3.55068C35.3589 3.84657 35.4329 4.21644 35.4329 4.5863C35.4329 5.03014 35.2849 5.4 34.989 5.69589Z" transform="translate(11.082 9.7771)" fill="white"/>
<path d="M1.92329 4.21644V1.12873e-06L5.64366e-07 2.07123L1.92329 4.21644Z" transform="translate(19.4404 11.3306)" fill="white"/>
<path d="M1.12873e-06 -5.64366e-07L0.147944 0.221918H0.221918L1.12873e-06 -5.64366e-07Z" transform="translate(40.6709 7.92773)" fill="#228FE0"/>
<path d="M1.55343 -1.12873e-06H-1.12873e-06V1.33151H1.6274C2.07123 1.33151 2.36712 1.10959 2.36712 0.665753C2.29315 0.221918 1.99726 -1.12873e-06 1.55343 -1.12873e-06Z" transform="translate(28.0117 11.8484)" fill="white"/>
<path d="M1.55342 -2.82183e-07H-2.82183e-07V1.33151H1.6274C2.07123 1.33151 2.36712 1.10959 2.36712 0.665753C2.29315 0.221917 1.99726 -2.82183e-07 1.55342 -2.82183e-07Z" transform="translate(22.917 2.91602)" fill="white"/>
</svg>
