<?xml version="1.0" encoding="utf-8"?>
<!-- Generator: Adobe Illustrator 22.0.1, SVG Export Plug-In . SVG Version: 6.00 Build 0)  -->
<svg version="1.1" id="Layer_1" xmlns="http://www.w3.org/2000/svg" xmlns:xlink="http://www.w3.org/1999/xlink" x="0px" y="0px"
	 viewBox="0 0 50 50" style="enable-background:new 0 0 50 50;" xml:space="preserve">
<g>
	<g>
		<path d="M38.6,12.5c-0.6,0-1,0.4-1,1v4.6c-0.7,0.3-1.5,0.4-2.4,0.4c-1.8,0-3.5-0.7-4.6-1.8l-0.7-0.8l-0.7,0.8
			c-1,1.1-2.7,1.8-4.6,1.8c-1.8,0-3.5-0.7-4.6-1.8l-0.7-0.8l-0.7,0.8c-1,1.1-2.7,1.8-4.6,1.8c-0.8,0-1.6-0.2-2.4-0.4v-4.6
			c0-0.6-0.4-1-1-1s-1,0.4-1,1v24c0,0.6,0.4,1,1,1h28c0.6,0,1-0.4,1-1v-24C39.6,12.9,39.1,12.5,38.6,12.5z M13.9,20.5
			c2,0,3.9-0.6,5.3-1.8c1.4,1.1,3.3,1.8,5.3,1.8s3.9-0.6,5.3-1.8c1.4,1.1,3.3,1.8,5.3,1.8c0.8,0,1.6-0.1,2.4-0.3v16.3h-26V20.2
			C12.3,20.4,13.1,20.5,13.9,20.5z"/>
	</g>
</g>
</svg>
