<?xml version="1.0" encoding="utf-8"?>
<!-- Generator: Adobe Illustrator 22.0.1, SVG Export Plug-In . SVG Version: 6.00 Build 0)  -->
<svg version="1.1" id="Layer_1" xmlns="http://www.w3.org/2000/svg" xmlns:xlink="http://www.w3.org/1999/xlink" x="0px" y="0px"
	 viewBox="0 0 50 50" style="enable-background:new 0 0 50 50;" xml:space="preserve">
<g>
	<path d="M38.8,10H11.2c-0.6,0-1.2,0.5-1.2,1.2v27.7c0,0.6,0.5,1.2,1.2,1.2h27.7c0.6,0,1.2-0.5,1.2-1.2V11.2
		C40,10.5,39.5,10,38.8,10z M35.9,12c-2.3,3.6-6.3,6-10.9,6s-8.6-2.4-10.9-6H35.9z M12,38V12.5C14.6,17,19.4,20,25,20
		c5.6,0,10.4-3,13-7.5V38H12z"/>
</g>
</svg>
