<?xml version="1.0" encoding="utf-8"?>
<!-- Generator: Adobe Illustrator 22.0.1, SVG Export Plug-In . SVG Version: 6.00 Build 0)  -->
<svg version="1.1" id="Layer_1" xmlns="http://www.w3.org/2000/svg" xmlns:xlink="http://www.w3.org/1999/xlink" x="0px" y="0px"
	 viewBox="0 0 200 100" style="enable-background:new 0 0 200 100;" xml:space="preserve">
<style type="text/css">
	.st0{fill:#DDDDDD;}
	.st1{fill:#141414;}
	.st2{fill:#919191;}
	.st3{fill:#858585;}
	.st4{fill:#FFFFFF;}
	.st5{fill:#333333;}
</style>
<g>
	<g>
		<path class="st1" d="M65.5,42.5c1.1,0.7,3.3,1.5,5.3,1.3c1.7,0,2.9-0.9,2.9-2.2c0-1.1-0.7-2-2.6-3.1c-2.4-1.3-4.2-3.3-4.2-5.9
			c0-4.6,4-7.7,9.4-7.7c2.4,0,4.4,0.5,5.5,1.1l-1.5,4.6c-0.9-0.5-2.4-0.9-4-0.9c-1.7,0-3.1,0.9-3.1,2.2c0,1.1,0.9,1.7,2.4,2.6
			c2.4,1.5,4.6,3.5,4.6,6.2c0,5-4.2,8.1-9.9,7.9c-2.6,0-5-0.7-6.4-1.5L65.5,42.5z"/>
		<path class="st1" d="M81.6,47.8l6.4-32.9h6.4l-2.4,13.2v0.2c1.7-2,4-3.3,6.8-3.3c3.3,0,5.3,2.2,5.3,5.9c0,1.1-0.2,2.6-0.5,4
			l-2.4,12.9h-6.4l2.4-12.7c0.2-0.9,0.2-1.7,0.2-2.6c0-1.3-0.7-2.4-2-2.4c-2,0-4.2,2.4-5,6.6l-2.2,11h-6.6L81.6,47.8L81.6,47.8z"/>
		<path class="st1" d="M127.4,34c0,7.9-5,14.7-12.7,14.7c-5.7,0-8.8-4-8.8-9c0-7.9,5-14.7,12.9-14.7C124.6,25,127.4,29.4,127.4,34z
			 M112.3,39.7c0,2.4,0.9,4.2,3.1,4.2c3.5,0,5.3-6.2,5.3-10.1c0-2-0.7-4-3.1-4C114.2,30,112.3,36,112.3,39.7z"/>
		<path class="st1" d="M125.7,56.6l4.4-22.8c0.5-2.6,1.1-5.7,1.3-7.9h5.7l-0.5,2.2l0,0c1.7-2.2,4.2-3.5,6.8-3.5
			c4.6,0,6.6,4.2,6.6,8.4c0,7.9-5,15.6-12.5,15.6c-1.1,0.2-2.6-0.7-3.3-0.7H134l-1.7,8.8L125.7,56.6L125.7,56.6z M134.9,43
			c0.7,0.7,1.5,0.9,2.6,0.9c3.5,0,6.2-5.9,6.2-10.1c0-1.7-0.7-3.5-2.6-3.5c-2.2,0-4.4,2.6-5,6.6L134.9,43z"/>
		<path class="st1" d="M150.7,47.8l4.4-22h6.6l-4.4,22H150.7z M159,23.6c-1.7,0-3.1-1.7-3.1-3.7c0-2.2,1.5-4,3.7-4
			c2,0,3.3,1.7,3.3,3.5C162.7,21.9,161,23.6,159,23.6L159,23.6z"/>
		<path class="st1" d="M162.7,47.8l3.5-17.6h-3.1l0.9-4.4h3.1l0.2-1.3c0.5-2.6,1.5-5.5,3.7-7.4c1.7-1.5,4-2.2,6.4-2.2
			c1.5,0,2.9,0.2,3.5,0.5l-1.3,5c-0.7-0.2-1.3-0.5-2-0.5c-2.2,0-3.5,2.2-3.7,4.4l-0.7,1.5h4.4l-0.9,4.4h-4.4l-3.5,17.6L162.7,47.8
			L162.7,47.8z"/>
		<path class="st1" d="M185.8,25.9l1.1,10.1c0.2,2.2,0.5,3.1,0.7,5.3l0,0c0.5-2.2,0.9-2.9,2-5.3l4-10.1h6.6l-7.9,16.7
			c-2.9,5.7-5.5,9.9-8.6,12.7c-2.2,2.2-5,3.1-6.4,3.5l-1.7-5.5c1.1-0.5,2.4-0.9,3.7-1.7c1.5-1.1,2.9-2.4,3.5-4
			c0.2-0.2,0.2-0.5,0.2-0.9l-4-20.8L185.8,25.9L185.8,25.9z"/>
	</g>
</g>
<g>
	<path class="st2" d="M72.7,74.5l2.1-0.2c0.1,0.9,0.3,1.5,0.7,2.1c0.4,0.5,1,1,1.7,1.3c0.8,0.3,1.7,0.5,2.6,0.5
		c0.9,0,1.6-0.1,2.3-0.4s1.2-0.6,1.5-1c0.3-0.5,0.5-0.9,0.5-1.5c0-0.5-0.2-1-0.5-1.4s-0.8-0.7-1.5-1c-0.5-0.2-1.5-0.5-3-0.8
		c-1.6-0.4-2.7-0.7-3.3-1.1c-0.8-0.4-1.4-1-1.8-1.6c-0.4-0.6-0.6-1.3-0.6-2.1c0-0.9,0.2-1.7,0.7-2.4c0.5-0.7,1.2-1.3,2.2-1.7
		c1-0.4,2-0.6,3.1-0.6c1.2,0,2.4,0.2,3.4,0.6c1,0.4,1.7,1,2.2,1.8s0.8,1.7,0.8,2.7l-2.2,0.2c-0.1-1.1-0.5-1.9-1.2-2.5
		c-0.7-0.5-1.7-0.8-3-0.8c-1.4,0-2.4,0.2-3,0.7c-0.6,0.5-1,1.1-1,1.8c0,0.6,0.2,1.1,0.7,1.5c0.4,0.4,1.6,0.8,3.4,1.2
		c1.8,0.4,3.1,0.8,3.8,1.1c1,0.5,1.7,1,2.2,1.7c0.5,0.7,0.7,1.5,0.7,2.4c0,0.9-0.2,1.7-0.8,2.6c-0.5,0.8-1.3,1.4-2.2,1.9
		c-1,0.5-2.1,0.7-3.3,0.7c-1.5,0-2.8-0.2-3.9-0.7c-1-0.5-1.9-1.1-2.5-2C73,76.6,72.7,75.6,72.7,74.5z"/>
	<path class="st2" d="M93.2,80V62.9h12.4v2H95.4v5.2h9.4v2h-9.4V78h10.5v2L93.2,80L93.2,80z"/>
	<path class="st2" d="M125.1,74l2.2,0.6c-0.5,1.9-1.3,3.3-2.6,4.2c-1.2,1-2.7,1.5-4.5,1.5c-1.8,0-3.3-0.4-4.5-1.1
		c-1.2-0.7-2-1.8-2.6-3.2c-0.6-1.4-0.9-3-0.9-4.6c0-1.8,0.3-3.3,1-4.7c0.7-1.3,1.7-2.3,2.9-3c1.2-0.7,2.6-1,4.2-1
		c1.7,0,3.2,0.4,4.3,1.3c1.2,0.9,2,2.1,2.5,3.7l-2.2,0.5c-0.4-1.2-1-2.2-1.7-2.7c-0.7-0.6-1.7-0.8-2.8-0.8c-1.3,0-2.4,0.3-3.3,1
		c-0.9,0.6-1.5,1.5-1.9,2.5c-0.4,1.1-0.5,2.2-0.5,3.3c0,1.5,0.2,2.7,0.6,3.8c0.4,1.1,1.1,1.9,2,2.4c0.9,0.5,1.9,0.8,2.9,0.8
		c1.2,0,2.3-0.4,3.2-1.1C124.2,76.5,124.8,75.4,125.1,74z"/>
	<path class="st2" d="M145.2,62.9h2.2v9.9c0,1.7-0.2,3.1-0.6,4.1c-0.4,1-1.1,1.8-2.1,2.5c-1,0.6-2.3,1-4,1c-1.6,0-2.9-0.3-3.9-0.8
		c-1-0.5-1.7-1.3-2.2-2.4c-0.4-1-0.7-2.5-0.7-4.3v-9.9h2.2v9.9c0,1.5,0.1,2.6,0.4,3.3c0.3,0.7,0.7,1.2,1.4,1.6s1.5,0.6,2.5,0.6
		c1.7,0,2.9-0.4,3.6-1.1c0.7-0.7,1.1-2.2,1.1-4.4V62.9L145.2,62.9z"/>
	<path class="st2" d="M155.1,80V62.9h7.6c1.5,0,2.7,0.2,3.5,0.5c0.8,0.3,1.4,0.8,1.9,1.6c0.5,0.8,0.7,1.6,0.7,2.6
		c0,1.2-0.4,2.2-1.2,3.1c-0.8,0.8-2,1.4-3.6,1.6c0.6,0.3,1,0.6,1.4,0.8c0.7,0.6,1.3,1.4,1.9,2.3l3,4.7h-2.8l-2.2-3.6
		c-0.7-1-1.2-1.8-1.6-2.4c-0.4-0.5-0.8-0.9-1.2-1.1c-0.3-0.2-0.7-0.4-1-0.5c-0.2,0-0.7-0.1-1.2-0.1h-2.6V80L155.1,80L155.1,80z
		 M157.3,70.4h4.9c1,0,1.8-0.1,2.4-0.3c0.6-0.2,1-0.5,1.3-1c0.3-0.5,0.5-1,0.5-1.5c0-0.8-0.3-1.5-0.9-2s-1.5-0.8-2.8-0.8h-5.4V70.4z
		"/>
	<path class="st2" d="M176.2,80V62.9h12.4v2h-10.1v5.2h9.4v2h-9.4V78h10.5v2L176.2,80L176.2,80z"/>
</g>
<path class="st0" d="M50.9,29.9c0-0.8,0-1.7,0-2.5h-0.1c-2.7,0.7-5.5,1.4-8.4,1.9c0-0.1,0-0.2,0-0.2c0-8.9-6.6-14.8-15-15.3
	c-8.4,0.5-15,6.4-15,15.3c0,0.1,0,0.2,0,0.2c-2.9-0.5-5.7-1.1-8.4-1.9H4c0,0.8,0,1.7,0,2.5c0,17.2-1.4,34-4,50.2h27.4h27.4
	C52.3,63.9,50.9,47.1,50.9,29.9z M34.4,69.3h-7h-6.9l4.4-12.8C22,55.4,20,52.6,20,49.4c0-4.2,3.4-7.5,7.5-7.5s7.5,3.4,7.5,7.5
	c0,3.2-2,6-4.9,7.1L34.4,69.3z M40.6,29.6c-4.2,0.6-8.7,1-13.2,1.1c-4.5-0.1-8.9-0.5-13.2-1.1c0-0.2,0-0.3,0-0.5
	c0-7.9,5.8-13,13.2-13.5C34.8,16,40.6,21.1,40.6,29C40.6,29.2,40.6,29.4,40.6,29.6z"/>
</svg>
