<svg width="49" height="18" viewBox="0 0 49 18" fill="none" xmlns="http://www.w3.org/2000/svg">
<path d="M6.78719 -5.67476e-07L0 1.21798V10.5248C0.576446 11.7707 1.45971 12.9236 2.6405 13.937C3.80269 14.9411 5.19731 15.7686 6.78719 16.4008C8.36777 15.7686 9.7624 14.9411 10.9339 13.937C12.1147 12.9236 12.9979 11.7707 13.5744 10.5248V1.21798L6.78719 -5.67476e-07Z" transform="translate(0 0.000488281)" fill="#EBEBEB"/>
<path d="M2.9938 6.26653L0 2.9938L1.08781 2.17562L2.9938 3.54236L7.08471 -5.67476e-07L8.17252 0.548554L2.9938 6.26653Z" transform="translate(2.69727 4.60278)" fill="#141414"/>
<path d="M2.14773 4.99277C2.14773 4.65806 2.41735 4.53719 2.87293 4.53719C3.52376 4.53719 4.33264 4.73244 4.98347 5.08574V3.07748C4.27686 2.79855 3.57954 2.68698 2.87293 2.68698C1.14359 2.68698 0 3.58884 0 5.09504C0 7.44732 3.23554 7.06611 3.23554 8.07954C3.23554 8.47004 2.89153 8.60021 2.41736 8.60021C1.71074 8.60021 0.808884 8.31198 0.0929752 7.92149V9.94835C0.883264 10.2924 1.68285 10.4318 2.41736 10.4318C4.18388 10.4318 5.40186 9.55785 5.40186 8.03306C5.38327 5.49483 2.14773 5.95041 2.14773 4.99277ZM7.89359 0.985537L5.82025 1.43182L5.81095 8.2469C5.81095 9.51136 6.7593 10.4318 8.01446 10.4318C8.71178 10.4318 9.22314 10.3017 9.50207 10.1529V8.42355C9.23244 8.53512 7.8843 8.92562 7.8843 7.67045V4.64876H9.50207V2.83574H7.8843L7.89359 0.985537ZM12.1519 3.46798L12.0124 2.83574H10.1808V10.2831H12.3099V5.23451C12.812 4.58368 13.6674 4.69525 13.9277 4.78822V2.82645C13.6488 2.73347 12.6539 2.54752 12.1519 3.46798ZM14.4483 2.83574H16.5868V10.2831H14.4483V2.83574ZM14.4483 2.18492L16.5868 1.72934V-5.67476e-07L14.4483 0.455579V2.18492ZM21.0217 2.68698C20.1849 2.68698 19.655 3.07748 19.3574 3.34711L19.2459 2.81715H17.3771V12.7469L19.5062 12.2913L19.5155 9.88327C19.8223 10.1064 20.2686 10.4225 21.0217 10.4225C22.5465 10.4225 23.9318 9.19525 23.9318 6.49897C23.9225 4.03512 22.5186 2.68698 21.0217 2.68698ZM20.5103 8.55372C20.0083 8.55372 19.7107 8.37707 19.5062 8.15393L19.4969 4.99277C19.72 4.74174 20.0269 4.57438 20.5103 4.57438C21.282 4.57438 21.8213 5.43905 21.8213 6.55475C21.8213 7.70764 21.3006 8.55372 20.5103 8.55372ZM30.6353 6.59194C30.6353 4.41632 29.5754 2.69628 27.5578 2.69628C25.531 2.69628 24.3037 4.41632 24.3037 6.58265C24.3037 9.14876 25.7541 10.4411 27.8275 10.4411C28.8409 10.4411 29.6033 10.2087 30.1891 9.88327V8.18182C29.6126 8.47004 28.9432 8.64669 28.1064 8.64669C27.2789 8.64669 26.5444 8.35847 26.4514 7.35434H30.6167C30.6167 7.23347 30.6353 6.79649 30.6353 6.59194ZM26.4328 5.78306C26.4328 4.82541 27.0186 4.42562 27.5578 4.42562C28.0785 4.42562 28.6271 4.82541 28.6271 5.78306H26.4328Z" transform="translate(18.0234 5.25354)" fill="white"/>
<path d="M-2.83738e-07 0.0650824C0.195248 0.0278923 0.455578 0 0.790289 0C1.19938 0 1.4969 0.0929755 1.68285 0.260331C1.8595 0.409091 1.96178 0.641529 1.96178 0.929752C1.96178 1.21798 1.8781 1.44112 1.72004 1.60847C1.5062 1.84091 1.15289 1.96178 0.743801 1.96178C0.622934 1.96178 0.511364 1.95248 0.409091 1.93388V3.20764H-2.83738e-07V0.0650824ZM0.418388 1.59917C0.511363 1.62707 0.622933 1.63636 0.762396 1.63636C1.25516 1.63636 1.56198 1.39463 1.56198 0.957645C1.56198 0.539256 1.26446 0.334711 0.808884 0.334711C0.632231 0.334711 0.492768 0.353306 0.418388 0.371901V1.59917Z" transform="translate(18.3691 1.0791)" fill="white"/>
<path d="M2.23141 1.18079C2.23141 2.02686 1.64566 2.39876 1.09711 2.39876C0.474173 2.39876 5.67476e-07 1.94318 5.67476e-07 1.21797C5.67476e-07 0.455578 0.502066 2.83738e-07 1.1343 2.83738e-07C1.78512 0.0092978 2.23141 0.483471 2.23141 1.18079ZM0.418389 1.20868C0.418389 1.71074 0.706612 2.09194 1.1157 2.09194C1.5155 2.09194 1.81302 1.72004 1.81302 1.19938C1.81302 0.808884 1.61777 0.316115 1.125 0.316115C0.632231 0.316115 0.418389 0.771695 0.418389 1.20868Z" transform="translate(20.5918 1.94373)" fill="white"/>
<path d="M0.427686 0.00929695L0.734504 1.17149C0.799587 1.42252 0.86467 1.66426 0.90186 1.89669H0.920455C0.97624 1.66426 1.05062 1.42252 1.125 1.17149L1.4969 2.83738e-07H1.85021L2.20351 1.1436C2.28719 1.41322 2.35227 1.65496 2.40806 1.8874H2.42665C2.46384 1.65496 2.52893 1.41322 2.60331 1.1436L2.92872 2.83738e-07H3.33781L2.60331 2.28719H2.22211L1.8688 1.19938C1.78512 0.948347 1.72004 0.71591 1.66426 0.446282H1.65496C1.59917 0.71591 1.52479 0.957644 1.45041 1.19938L1.07851 2.28719H0.688017L5.67476e-07 2.83738e-07H0.427686V0.00929695Z" transform="translate(23.0547 1.99023)" fill="white"/>
<path d="M0.399792 1.28306C0.40909 1.84091 0.771695 2.07335 1.18079 2.07335C1.47831 2.07335 1.65496 2.01756 1.81302 1.95248L1.8874 2.25C1.73864 2.31508 1.4876 2.38946 1.125 2.38946C0.418389 2.38946 0 1.92459 0 1.23657C0 0.548554 0.409091 2.83738e-07 1.06921 2.83738e-07C1.81302 2.83738e-07 2.01756 0.660123 2.01756 1.07851C2.01756 1.16219 2.00826 1.22727 1.99897 1.27376H0.399792V1.28306ZM1.61777 0.985537C1.62707 0.725206 1.5062 0.306819 1.04132 0.306819C0.622935 0.306819 0.436982 0.697313 0.399792 0.985537H1.61777Z" transform="translate(26.5781 1.94373)" fill="white"/>
<path d="M0.0185962 0.771695C0.0185962 0.502067 0.00929752 0.269628 0 0.0557845H0.362603L0.381199 0.502066H0.399792C0.502065 0.195248 0.7531 2.83738e-07 1.03203 2.83738e-07C1.07851 2.83738e-07 1.1157 0.00929752 1.15289 0.018595V0.409091C1.1064 0.399793 1.06921 0.390496 1.01343 0.390496C0.715909 0.390496 0.511363 0.613636 0.455578 0.920454C0.44628 0.976239 0.436985 1.04132 0.436985 1.1157V2.33368H0.0278914V0.771695H0.0185962Z" transform="translate(29.0898 1.94373)" fill="white"/>
<path d="M0.399792 1.28306C0.40909 1.84091 0.771695 2.07335 1.18079 2.07335C1.47831 2.07335 1.65496 2.01756 1.81302 1.95248L1.8874 2.25C1.73864 2.31508 1.4876 2.38946 1.125 2.38946C0.418389 2.38946 0 1.92459 0 1.23657C0 0.548554 0.409091 2.83738e-07 1.06921 2.83738e-07C1.81302 2.83738e-07 2.01756 0.660123 2.01756 1.07851C2.01756 1.16219 2.00826 1.22727 1.99897 1.27376H0.399792V1.28306ZM1.61777 0.985537C1.62707 0.725206 1.5062 0.306819 1.04132 0.306819C0.622935 0.306819 0.436982 0.697313 0.399792 0.985537H1.61777Z" transform="translate(30.4375 1.94373)" fill="white"/>
<path d="M2.13856 0V2.76136C2.13856 2.96591 2.14786 3.19835 2.15716 3.35641H1.78526L1.76666 2.95661H1.75737C1.6272 3.20764 1.34828 3.40289 0.976374 3.40289C0.42782 3.40289 0.000134456 2.93802 0.000134456 2.2407C-0.00916307 1.47831 0.465011 1.01343 1.02286 1.01343C1.37617 1.01343 1.60861 1.18078 1.71088 1.36674H1.72018V0H2.13856ZM1.72947 1.99897C1.72947 1.94318 1.72018 1.8781 1.71088 1.82231C1.6458 1.56198 1.42265 1.33884 1.10654 1.33884C0.678853 1.33884 0.418523 1.72004 0.418523 2.22211C0.418523 2.68698 0.641662 3.06818 1.09724 3.06818C1.37617 3.06818 1.6272 2.88223 1.71088 2.57541C1.72947 2.51963 1.72947 2.46384 1.72947 2.39876V1.99897Z" transform="translate(32.8086 0.939575)" fill="white"/>
<path d="M0 3.3564C0.00929752 3.19835 0.0185962 2.96591 0.0185962 2.76136V-5.67476e-07H0.427687V1.43182H0.436985C0.585745 1.18079 0.846075 1.01343 1.21798 1.01343C1.78512 1.01343 2.18492 1.4876 2.18492 2.18492C2.18492 3.0031 1.67355 3.41219 1.16219 3.41219C0.827479 3.41219 0.567148 3.28202 0.399792 2.9845H0.381199L0.362603 3.3657H0V3.3564ZM0.436985 2.44525C0.436985 2.50103 0.44628 2.54752 0.455578 2.59401C0.539256 2.88223 0.780992 3.07748 1.07851 3.07748C1.5155 3.07748 1.77583 2.72417 1.77583 2.19421C1.77583 1.73864 1.54339 1.34814 1.09711 1.34814C0.818181 1.34814 0.548554 1.54339 0.464876 1.8595C0.455579 1.90599 0.436985 1.96178 0.436985 2.02686V2.44525Z" transform="translate(36.6191 0.930298)" fill="white"/>
<path d="M0.436983 0.0185945L0.939048 1.36674C0.994834 1.5155 1.05062 1.70145 1.08781 1.83161H1.09711C1.14359 1.69215 1.19008 1.5155 1.24587 1.35744L1.70145 0.0185945H2.13843L1.5155 1.64566C1.21798 2.42665 1.01343 2.83574 0.734505 3.07748C0.529959 3.25413 0.325414 3.32851 0.223141 3.34711L0.120868 2.9938C0.22314 2.95661 0.362603 2.89153 0.48347 2.78926C0.595041 2.69628 0.734505 2.53822 0.836778 2.32438C0.855373 2.27789 0.873967 2.25 0.873967 2.22211C0.873967 2.19422 0.864668 2.16632 0.846073 2.11054L1.13495e-06 -2.83738e-07H0.436983V0.0185945Z" transform="translate(39.0098 1.98096)" fill="white"/>
</svg>
